<svg xmlns="http://www.w3.org/2000/svg" xmlns:xlink="http://www.w3.org/1999/xlink" xmlns:lucid="lucid" width="2526" height="964"><g transform="translate(-4329 -2422)" lucid:page-tab-id="0_0"><path d="M1500-1000h6500v5000H1500z" fill="#f2f3f5"/><path d="M1600-514a6 6 0 0 1 6-6h6051.3a6 6 0 0 1 6 6v4195.9a6 6 0 0 1-6 6H1606a6 6 0 0 1-6-6z" stroke="#3a414a" stroke-width="3" fill="#fff"/><path d="M1600-606.4a6 6 0 0 1 6-6h572.42a6 6 0 0 1 6 6v68.4a6 6 0 0 1-6 6H1606a6 6 0 0 1-6-6z" fill="#3a414a"/><use xlink:href="#a" transform="matrix(1,0,0,1,1616,-596.3984375) translate(0 39.05078125)"/><use xlink:href="#b" transform="matrix(1,0,0,1,1616,-596.3984375) translate(151.5625 39.05078125)"/><use xlink:href="#c" transform="matrix(1,0,0,1,1616,-596.3984375) translate(394.31640625 39.05078125)"/><path d="M6713.7 3192.93c0-1.18-.95-2.13-2.15-2.13h-29.4c-1.2 0-2.16.95-2.16 2.13v5.3c0 1.2.95 2.13 2.15 2.13h29.4c1.2 0 2.16-.94 2.16-2.12v-5.3zm4.1 10.03c0 .94-.73 1.77-1.7 1.77h-105.6c-.95 0-1.67-.83-1.67-1.77v-14.87c0-.95.72-1.78 1.68-1.78h105.6c.97 0 1.7.82 1.7 1.77v14.86zm-1.7-22.07h-105.6c-3.95 0-7.2 3.3-7.2 7.2v14.86c0 3.9 3.25 7.2 7.2 7.2h105.6c3.97 0 7.2-3.3 7.2-7.2v-14.87c0-3.9-3.23-7.2-7.2-7.2zm-97.67-19.6v-54.04h89.76v54.04h-89.77zm91.32-59.6h-93c-2.04 0-3.84 1.78-3.84 3.9v57.24c0 2.12 1.8 3.9 3.85 3.9h93c2.16 0 3.84-1.78 3.84-3.9v-57.23c0-2.12-1.7-3.9-3.85-3.9zm8.04 67.4c0 .93-.73 1.76-1.7 1.76h-105.6c-.95 0-1.67-.83-1.67-1.77v-69.75c0-.94.72-1.77 1.68-1.77h105.6c.97 0 1.7.83 1.7 1.77v69.74zm-1.7-76.94h-105.6c-3.95 0-7.2 3.3-7.2 7.2v69.73c0 4 3.25 7.2 7.2 7.2h105.6c3.97 0 7.2-3.2 7.2-7.2v-69.75c0-3.9-3.23-7.2-7.2-7.2z" stroke="#000" stroke-opacity="0" fill="#232f3e"/><use xlink:href="#d" transform="matrix(1,0,0,1,6573.312026744134,3219.154533348314) translate(-4.64990234375 25.1875)"/><path d="M5820.56 2974.3v-81.58h58.35v5.76h-49.6v75.83h-8.74zm107.7 3.26v5.9c3.1 0 9.27 3 9.27 10.15 0 12.3-11.18 12.66-12.47 12.66h-53.1c-9.63 0-16.44-5-16.44-12.15v-1c0-7 7.7-10.15 12.47-11.4h.24c1.42-.38 2.32-1.75 2.06-3.13v-1.5-1c0-6.03 4.76-14.8 11.05-17.43 7.07-3 13-.75 16.72 1.63l3.08-4.9c-6.94-4.5-14.78-5.13-22.1-2.12-7.85 3.4-14.53 13.8-14.53 22.8v.64c-6.17 2-10.54 5.13-12.86 9.26h-16.45v-81.6h58.24v37.86h5.78v-43.74h-14.52v-11.65h-69.93v93.24h14.53v11.66h20.56c0 .5-.13 1-.13 1.38v1c0 10.4 9.4 18.06 22.24 18.06h53.1c6.3 0 18.24-3.9 18.24-18.55 0-10.4-8.73-16.04-15.03-16.04zm-8.73-29.57c4.76 0 8.23 3.5 8.23 8.38 0 3-4.24 10.9-8.23 17.17-4.1-6.26-8.35-14.03-8.35-17.17 0-4.88 3.47-8.4 8.35-8.4zm0 33.7c.9 0 1.8-.5 2.32-1.25 1.92-2.9 11.7-17.17 11.7-24.07 0-8.14-6.05-14.16-14.02-14.16-8.1 0-14.14 6.02-14.14 14.16 0 6.9 9.76 21.18 11.7 24.07.5.75 1.4 1.25 2.43 1.25z" stroke="#000" stroke-opacity="0" fill="#8c4fff"/><use xlink:href="#e" transform="matrix(1,0,0,1,5784.771240411665,3021.154533348314) translate(21.83203125 25.1875)"/><use xlink:href="#f" transform="matrix(1,0,0,1,5784.771240411665,3021.154533348314) translate(38.82470703125 62.938281249999996)"/><path d="M5117.57 2745.4c0-8.77 7.1-15.85 15.9-15.85 8.7 0 15.9 7.08 15.9 15.84 0 8.75-7.2 15.95-15.9 15.95-8.8 0-15.9-7.2-15.9-15.96zm-37.3 50.15c0-3.24 2.6-5.88 5.9-5.88 3.2 0 5.8 2.64 5.8 5.88 0 3.24-2.6 5.88-5.8 5.88-3.3 0-5.9-2.64-5.9-5.88zm5.9-103.32c3.2 0 5.8 2.64 5.8 5.88 0 3.25-2.6 5.9-5.8 5.9-3.3 0-5.9-2.65-5.9-5.9 0-3.23 2.6-5.87 5.9-5.87zm-26 83.28c0-3.23 2.7-5.87 5.9-5.87 3.3 0 5.9 2.64 5.9 5.88 0 3.25-2.6 5.9-5.9 5.9-3.2 0-5.9-2.65-5.9-5.9zm5.8-28.67c0-3.24 2.6-5.88 5.9-5.88 3.2 0 5.8 2.64 5.8 5.88 0 3.24-2.6 5.88-5.8 5.88-3.3 0-5.9-2.63-5.9-5.87zm-5.8-28.68c0-3.24 2.7-5.88 5.9-5.88 3.3 0 5.9 2.64 5.9 5.88 0 3.24-2.6 5.88-5.9 5.88-3.2 0-5.9-2.64-5.9-5.88zm60.2 10.44l-24.6-24.6c1.1-1.8 1.7-3.73 1.7-5.9 0-6.23-5.1-11.27-11.3-11.27-6.3 0-11.3 5.04-11.3 11.28 0 6.25 5 11.4 11.3 11.4 2.1 0 4.1-.7 5.8-1.67l24.6 24.6c-.7.84-1.4 1.8-1.9 2.76l-37.4-15.97c.1-.36.1-.72.1-1.08 0-6.24-5-11.28-11.3-11.28-6.2 0-11.3 5.04-11.3 11.28 0 6.24 5.1 11.4 11.3 11.4 4 0 7.4-2.04 9.5-5.16l37.1 15.95c-.3 1.2-.4 2.4-.5 3.72h-29.4c-1.2-4.92-5.7-8.52-10.9-8.52-6.3 0-11.4 5.04-11.4 11.28 0 6.24 5.1 11.28 11.4 11.28 5.2 0 9.7-3.6 10.9-8.5h29.7c.3 1.2.6 2.27 1 3.47l-37.9 16.2c-2.1-3.12-5.5-5.16-9.5-5.16-6.2 0-11.3 5.17-11.3 11.4 0 6.25 5.1 11.3 11.3 11.3 6.3 0 11.3-5.05 11.3-11.3 0-.35 0-.7-.1-1.07l38.6-16.56-.5-1.2c.7 1.2 1.5 2.28 2.5 3.24l-25.9 25.93c-1.7-.96-3.7-1.68-5.8-1.68-6.3 0-11.3 5.16-11.3 11.4s5 11.28 11.3 11.28c6.2 0 11.3-5.04 11.3-11.28 0-2.16-.6-4.08-1.7-5.88l26.3-26.28c3.3 2.15 7.2 3.35 11.4 3.35 11.7 0 21.3-9.6 21.3-21.36 0-11.77-9.6-21.37-21.3-21.37-5 0-9.5 1.68-13.1 4.56z" stroke="#000" stroke-opacity="0" fill="#7aa116"/><use xlink:href="#g" transform="matrix(1,0,0,1,5024.771240411665,2815.827266674157) translate(13.35595703125 25.1875)"/><use xlink:href="#h" transform="matrix(1,0,0,1,5024.771240411665,2815.827266674157) translate(72.12255859375 25.1875)"/><path d="M4728.37 2993.17h13.68v-5.52h-13.68v5.52zm-10.96 0h5.53v-5.52h-5.52v5.52zm10.97-27.36h13.68v-5.4h-13.68v5.4zm-10.96 0h5.53v-5.4h-5.52v5.4zm10.97-30h13.68v-5.4h-13.68v5.4zm-10.96 0h5.53v-5.4h-5.52v5.4zm-7.2.6v-20.87c6.57 4.68 18.4 7.56 33.53 7.56 14 0 28.08-2.77 35.6-8.05v21.36c0 5.4-14.64 11.4-35.6 11.4-20.64 0-33.52-5.87-33.52-11.4zm0 28.2v-18.95c6.57 4.68 18.4 7.56 33.53 7.56 13.68 0 28-2.5 35.6-7.8v19.2c0 5.4-14.64 11.3-35.6 11.3s-33.52-5.77-33.52-11.3zm0 28.1v-18.97c6.57 4.8 18.4 7.68 33.53 7.68 13.68 0 28-2.5 35.6-7.8v19.1c0 5.4-14.64 11.4-35.6 11.4s-33.52-5.77-33.52-11.4zm69.13-86.4c0 5.4-14.64 11.27-35.6 11.27-20.64 0-33.52-5.88-33.52-11.28 0-5.4 12.9-11.4 33.53-11.4 20.96 0 35.6 6 35.6 11.4zm-74.56 0v86.4c0 10.07 15.68 16.8 38.96 16.8 19.76 0 41.04-5.3 41.04-16.8v-86.4c0-11.05-20.64-16.8-41.04-16.8-23.28 0-38.96 6.7-38.96 16.8z" stroke="#000" stroke-opacity="0" fill="#7aa116"/><use xlink:href="#i" transform="matrix(1,0,0,1,4674.771240411665,3018.4909000112357) translate(43.6953125 25.1875)"/><use xlink:href="#j" transform="matrix(1,0,0,1,4674.771240411665,3018.4909000112357) translate(26.43603515625 62.938281249999996)"/><use xlink:href="#k" transform="matrix(1,0,0,1,4674.771240411665,3018.4909000112357) translate(21.51025390625 100.68906249999999)"/><path d="M5861.1 3146.7l.26 3.33.75 3.13 1.24 2.97 1.68 2.75 2.1 2.45 2.44 2.1 2.74 1.67 2.98 1.23 3.13.75 3.36.27h196.45v6.95H5881.5l-4.16-.33-4.2-1-3.98-1.66-3.68-2.24-3.28-2.8-2.8-3.28-2.25-3.68-1.65-4-1-4.18-.34-4.16v-55.05h6.95zm739.1 20.65v6.95h-379.87v-6.95z" stroke="#3a414a" stroke-width=".05" fill="#3a414a"/><path d="M6603.3 3169.1l.7 3.1 1.64 2.1h-5.53v-6.95h3.2z" fill="#3a414a"/><path stroke="#3a414a" stroke-width=".05" fill="#3a414a"/><path d="M5863.45 3025.16h-11.67l5.84-10.1z" fill="#3a414a"/><path d="M5867.47 3025.16h-19.7l9.85-17.06zm-11.33-.6h2.96l-1.48-2.56z" stroke="#3a414a" stroke-width=".05" fill="#3a414a"/><use xlink:href="#l" transform="matrix(1,0,0,1,6078.213058991981,3157.377189598314) translate(0 21.52777777777778)"/><use xlink:href="#m" transform="matrix(1,0,0,1,6078.213058991981,3157.377189598314) translate(65.67708333333334 21.52777777777778)"/><path d="M5811.38 2716.85l4.2 1 3.98 1.66 3.68 2.26 3.28 2.8 2.8 3.28 2.25 3.68 1.65 4 1 4.18.34 4.16v139.47h-6.95v-139.2l-.25-3.34-.76-3.14-1.24-2.97-1.68-2.76-2.1-2.45-2.44-2.1-2.74-1.68-2.98-1.23-3.13-.76-3.35-.26h-197.1v-6.95h197.37zm-662.3 6.63v-6.95h358.98v6.94z" stroke="#3a414a" stroke-width=".05" fill="#3a414a"/><path d="M5834.56 2886.83h-6.95v-3.6h6.96z" fill="#3a414a"/><path stroke="#3a414a" stroke-width=".05" fill="#3a414a"/><path d="M5145.6 2724.64l-14.27-4.64 14.26-4.64z" fill="#3a414a"/><path d="M5149.07 2729.42l-29-9.42 29-9.42z" stroke="#3a414a" stroke-width=".05" fill="#3a414a"/><use xlink:href="#n" transform="matrix(1,0,0,1,5508.054965622158,2706.5559895833335) translate(0 21.52777777777778)"/><use xlink:href="#o" transform="matrix(1,0,0,1,5508.054965622158,2706.5559895833335) translate(6.25 21.52777777777778)"/><path d="M4793.36 2750.3h-24.45l-3.34.27-3.13.75-2.97 1.23-2.75 1.68-2.43 2.1-2.1 2.44-1.68 2.74-1.24 3-.75 3.12-.25 3.34v89.5h-6.95v-89.77l.32-4.17 1-4.2 1.66-3.98 2.26-3.68 2.8-3.28 3.28-2.8 3.67-2.26 3.98-1.65 4.2-1.02 4.16-.33h24.72zm263.6 0h-112.55v-6.95h112.57z" stroke="#3a414a" stroke-width=".05" fill="#3a414a"/><path d="M5060.85 2743.92l-.38 2.9.38 2.9.24.58h-4.22v-6.95h4.2z" fill="#3a414a"/><path stroke="#3a414a" stroke-width=".05" fill="#3a414a"/><path d="M4744.77 2878.22l-4.63-14.27h9.27z" fill="#fff"/><path d="M4744.77 2889.47l-9.42-29h18.84z" stroke="#3a414a" stroke-width=".05" fill="#3a414a"/><use xlink:href="#p" transform="matrix(1,0,0,1,4793.360544964523,2733.3832562574903) translate(0 21.52777777777778)"/><use xlink:href="#q" transform="matrix(1,0,0,1,4793.360544964523,2733.3832562574903) translate(85.31901041666667 21.52777777777778)"/><path d="M5903.94 3107.35l.26 3.35.76 3.13 1.23 2.97 1.67 2.75 2.1 2.44 2.44 2.08 2.75 1.7 2.98 1.22 3.13.75 3.34.26h218.12v6.96h-218.4l-4.15-.32-4.2-1-3.98-1.66-3.7-2.26-3.27-2.8-2.8-3.28-2.25-3.67-1.65-4-1-4.18-.34-4.18v-15.7h6.94zm670.28 20.66v6.96h-332.5V3128zm-670.28-102.84H5897v-9.5h6.94z" stroke="#3a414a" stroke-width=".05" fill="#3a414a"/><path d="M5903.94 3015.74H5897v-3.58h6.94z" fill="#3a414a"/><path stroke="#3a414a" stroke-width=".05" fill="#3a414a"/><path d="M6592 3131.5l-14.28 4.62v-9.27z" fill="#3a414a"/><path d="M6603.23 3131.5l-28.98 9.4v-18.83z" stroke="#3a414a" stroke-width=".05" fill="#3a414a"/><use xlink:href="#r" transform="matrix(1,0,0,1,6142.715602448866,3118.043856264981) translate(0 21.52777777777778)"/><path d="M5835.44 2735.08l3.7 2.17 2.76 3.26 1.06 2.85h16.74l3.45.27 3.5.85 3.34 1.38 3.06 1.88 2.74 2.34 2.34 2.74 1.88 3.08 1.38 3.33.85 3.5.27 3.47v97.17h-6.95v-96.9l-.2-2.64-.6-2.44-.96-2.32-1.3-2.13-1.63-1.9-1.9-1.63-2.15-1.3-2.3-.97-2.46-.6-2.63-.2h-22.52l-.38-4.32-.7-1.92-1.2-1.42-1.62-.94-2.07-.37-.7.06-1.9.7-1.43 1.2-.94 1.6-.97 5.4h-247.76v-6.95h241.94l.15-.88 2.17-3.7 3.27-2.76 3.92-1.45 2.54-.23zm-397.36 15.22h-279.93v-6.95h279.93z" stroke="#3a414a" stroke-width=".05" fill="#3a414a"/><path d="M5158.24 2750.3h-4.16l.4-1.38.3-3.53-.25-2.05h3.7z" fill="#3a414a"/><path stroke="#3a414a" stroke-width=".05" fill="#3a414a"/><path d="M5879.04 2879.83l-7.5-13h15z" fill="#3a414a"/><path d="M5879.04 2886.78l-13.52-23.42h27.04zm-1.48-16.47l1.48 2.58 1.48-2.57z" stroke="#3a414a" stroke-width=".05" fill="#3a414a"/><use xlink:href="#s" transform="matrix(1,0,0,1,5438.081744027715,2733.3832562574903) translate(0 21.52777777777778)"/><use xlink:href="#t" transform="matrix(1,0,0,1,5438.081744027715,2733.3832562574903) translate(86.57552083333334 21.52777777777778)"/><path d="M4565.44 2626.9l-6.6 9.07-6.36 9.6-6.15 10.14-5.9 10.72-5.6 11.3-5.3 11.9-4.94 12.5-4.56 13.06-4.1 13.6-3.63 14.12-3.07 14.52-2.5 14.84-1.9 15-1.28 15.06-.62 14.92v14.6l.6 14.15 1.12 13.53 1.6 12.8 2.04 11.98 2.35 11.13 2.62 10.23 2.82 9.35 2.95 8.52 3.05 7.7 3.1 6.97 3.1 6.27 3.12 5.66 3.08 5.1 3.05 4.58 3 4.14 2.95 3.72 2.9 3.36 2.84 3.04 2.8 2.73 2.74 2.47 2.7 2.24 2.67 2.03 2.62 1.82 2.6 1.65 2.57 1.48 2.54 1.34 2.54 1.2 2.52 1.05 2.53.94 2.53.83 2.53.7 2.56.6 2.57.5 2.6.4 2.67.27 2.18.13-.44 6.94-2.32-.15-2.95-.3-2.9-.43-2.86-.56-2.84-.67-2.8-.78-2.82-.93-2.8-1.04-2.8-1.17-2.8-1.32-2.8-1.47-2.82-1.63-2.84-1.8-2.86-2-2.9-2.2-2.92-2.4-2.96-2.68-3-2.94-3.05-3.25-3.1-3.58-3.12-3.96-3.16-4.37-3.2-4.83-3.24-5.34-3.25-5.9-3.25-6.55-3.2-7.23-3.17-7.98-3.05-8.78-2.9-9.63-2.7-10.52-2.42-11.4-2.07-12.26-1.66-13.1-1.16-13.8-.6-14.45v-14.9l.64-15.22 1.28-15.34 1.94-15.3 2.56-15.12 3.14-14.8 3.7-14.4 4.2-13.9 4.64-13.33 5.05-12.77 5.4-12.17 5.75-11.56 6.03-10.97 6.3-10.4 6.54-9.83 6.76-9.3 3.32-4.2h8.87zm297.12-128.76l14.86 1.12 14.2 1.67 13.5 2.17 12.82 2.62 12.13 3 11.45 3.36 10.82 3.66 10.2 3.94 9.6 4.2 9.08 4.4 8.55 4.6 8.08 4.8 7.63 4.98 7.2 5.14 6.8 5.3 6.45 5.48 6.1 5.64 5.77 5.8 5.47 5.96 5.17 6.15 4.9 6.34 4.62 6.54 4.36 6.77 4.12 7 3.86 7.23 3.6 7.53 3.38 7.82 3.1 8.16 2.86 8.54 2.57 8.94 1.45 5.95-6.75 1.64-1.4-5.8-2.5-8.66-2.76-8.25-3-7.9-3.25-7.54-3.5-7.26-3.73-6.98-3.96-6.74-4.2-6.52-4.46-6.3-4.7-6.1-5-5.93-5.27-5.76-5.56-5.58-5.88-5.43-6.22-5.3-6.58-5.12-6.97-4.98-7.38-4.82-7.82-4.64-8.3-4.48-8.8-4.28-9.36-4.07-9.93-3.82-10.54-3.58-11.17-3.27-11.85-2.93-12.5-2.56-13.23-2.12-13.92-1.64-14.57-1.1-15.2-.5-15.76.12-16.22.8-16.57 1.54-16.78 2.26-16.83 3-16.72 3.68-16.44 4.37-16.02 4.98-15.46 5.52-14.8 6-14.04 6.4-13.23 6.7-12.38 6.93-11.56 7.13-10.7 7.25-9.92 7.32-9.13 7.36-6.48 5.7h-10.25l1.3-1.28 2.37-2.2 8.6-7.54 9.35-7.53 10.14-7.5 10.95-7.4 11.8-7.28 12.64-7.1 13.5-6.83 14.3-6.5 15.06-6.1 15.74-5.63 16.3-5.07 16.72-4.44 17-3.76 17.12-3.04 17.07-2.3 16.86-1.55 16.52-.83 16.04-.13z" stroke="#3a414a" stroke-width=".05" fill="#3a414a"/><path d="M4599 2996.52v6.96l-3.66-.08.14-6.95z" fill="#3a414a"/><path stroke="#3a414a" stroke-width=".05" fill="#3a414a"/><path d="M5086.9 2679.95l-9.75-11.4 14.74-2.75z" fill="#3a414a"/><path d="M5088.2 2686.78l-17.6-20.53 26.57-4.97zm-4.5-15.9l1.93 2.23.98-2.78z" stroke="#3a414a" stroke-width=".05" fill="#3a414a"/><use xlink:href="#u" transform="matrix(1,0,0,1,4502.146081048107,2591.6199927352145) translate(0 21.52777777777778)"/><use xlink:href="#v" transform="matrix(1,0,0,1,4502.146081048107,2591.6199927352145) translate(86.5451388888889 21.52777777777778)"/><path d="M1600-514a6 6 0 0 1 6-6h6051.3a6 6 0 0 1 6 6v4195.9a6 6 0 0 1-6 6H1606a6 6 0 0 1-6-6z" stroke="#3a414a" stroke-width="3" fill="#fff"/><path d="M1600-606.4a6 6 0 0 1 6-6h572.42a6 6 0 0 1 6 6v68.4a6 6 0 0 1-6 6H1606a6 6 0 0 1-6-6z" fill="#3a414a"/><use xlink:href="#a" transform="matrix(1,0,0,1,1616,-596.3984375) translate(0 39.05078125)"/><use xlink:href="#b" transform="matrix(1,0,0,1,1616,-596.3984375) translate(151.5625 39.05078125)"/><use xlink:href="#c" transform="matrix(1,0,0,1,1616,-596.3984375) translate(394.31640625 39.05078125)"/><path d="M6713.7 3192.93c0-1.18-.95-2.13-2.15-2.13h-29.4c-1.2 0-2.16.95-2.16 2.13v5.3c0 1.2.95 2.13 2.15 2.13h29.4c1.2 0 2.16-.94 2.16-2.12v-5.3zm4.1 10.03c0 .94-.73 1.77-1.7 1.77h-105.6c-.95 0-1.67-.83-1.67-1.77v-14.87c0-.95.72-1.78 1.68-1.78h105.6c.97 0 1.7.82 1.7 1.77v14.86zm-1.7-22.07h-105.6c-3.95 0-7.2 3.3-7.2 7.2v14.86c0 3.9 3.25 7.2 7.2 7.2h105.6c3.97 0 7.2-3.3 7.2-7.2v-14.87c0-3.9-3.23-7.2-7.2-7.2zm-97.67-19.6v-54.04h89.76v54.04h-89.77zm91.32-59.6h-93c-2.04 0-3.84 1.78-3.84 3.9v57.24c0 2.12 1.8 3.9 3.85 3.9h93c2.16 0 3.84-1.78 3.84-3.9v-57.23c0-2.12-1.7-3.9-3.85-3.9zm8.04 67.4c0 .93-.73 1.76-1.7 1.76h-105.6c-.95 0-1.67-.83-1.67-1.77v-69.75c0-.94.72-1.77 1.68-1.77h105.6c.97 0 1.7.83 1.7 1.77v69.74zm-1.7-76.94h-105.6c-3.95 0-7.2 3.3-7.2 7.2v69.73c0 4 3.25 7.2 7.2 7.2h105.6c3.97 0 7.2-3.2 7.2-7.2v-69.75c0-3.9-3.23-7.2-7.2-7.2z" stroke="#000" stroke-opacity="0" fill="#232f3e"/><use xlink:href="#d" transform="matrix(1,0,0,1,6573.312026744134,3219.154533348314) translate(-4.64990234375 25.1875)"/><path d="M5820.56 2974.3v-81.58h58.35v5.76h-49.6v75.83h-8.74zm107.7 3.26v5.9c3.1 0 9.27 3 9.27 10.15 0 12.3-11.18 12.66-12.47 12.66h-53.1c-9.63 0-16.44-5-16.44-12.15v-1c0-7 7.7-10.15 12.47-11.4h.24c1.42-.38 2.32-1.75 2.06-3.13v-1.5-1c0-6.03 4.76-14.8 11.05-17.43 7.07-3 13-.75 16.72 1.63l3.08-4.9c-6.94-4.5-14.78-5.13-22.1-2.12-7.85 3.4-14.53 13.8-14.53 22.8v.64c-6.17 2-10.54 5.13-12.86 9.26h-16.45v-81.6h58.24v37.86h5.78v-43.74h-14.52v-11.65h-69.93v93.24h14.53v11.66h20.56c0 .5-.13 1-.13 1.38v1c0 10.4 9.4 18.06 22.24 18.06h53.1c6.3 0 18.24-3.9 18.24-18.55 0-10.4-8.73-16.04-15.03-16.04zm-8.73-29.57c4.76 0 8.23 3.5 8.23 8.38 0 3-4.24 10.9-8.23 17.17-4.1-6.26-8.35-14.03-8.35-17.17 0-4.88 3.47-8.4 8.35-8.4zm0 33.7c.9 0 1.8-.5 2.32-1.25 1.92-2.9 11.7-17.17 11.7-24.07 0-8.14-6.05-14.16-14.02-14.16-8.1 0-14.14 6.02-14.14 14.16 0 6.9 9.76 21.18 11.7 24.07.5.75 1.4 1.25 2.43 1.25z" stroke="#000" stroke-opacity="0" fill="#8c4fff"/><use xlink:href="#e" transform="matrix(1,0,0,1,5784.771240411665,3021.154533348314) translate(21.83203125 25.1875)"/><use xlink:href="#f" transform="matrix(1,0,0,1,5784.771240411665,3021.154533348314) translate(38.82470703125 62.938281249999996)"/><path d="M5117.57 2745.4c0-8.77 7.1-15.85 15.9-15.85 8.7 0 15.9 7.08 15.9 15.84 0 8.75-7.2 15.95-15.9 15.95-8.8 0-15.9-7.2-15.9-15.96zm-37.3 50.15c0-3.24 2.6-5.88 5.9-5.88 3.2 0 5.8 2.64 5.8 5.88 0 3.24-2.6 5.88-5.8 5.88-3.3 0-5.9-2.64-5.9-5.88zm5.9-103.32c3.2 0 5.8 2.64 5.8 5.88 0 3.25-2.6 5.9-5.8 5.9-3.3 0-5.9-2.65-5.9-5.9 0-3.23 2.6-5.87 5.9-5.87zm-26 83.28c0-3.23 2.7-5.87 5.9-5.87 3.3 0 5.9 2.64 5.9 5.88 0 3.25-2.6 5.9-5.9 5.9-3.2 0-5.9-2.65-5.9-5.9zm5.8-28.67c0-3.24 2.6-5.88 5.9-5.88 3.2 0 5.8 2.64 5.8 5.88 0 3.24-2.6 5.88-5.8 5.88-3.3 0-5.9-2.63-5.9-5.87zm-5.8-28.68c0-3.24 2.7-5.88 5.9-5.88 3.3 0 5.9 2.64 5.9 5.88 0 3.24-2.6 5.88-5.9 5.88-3.2 0-5.9-2.64-5.9-5.88zm60.2 10.44l-24.6-24.6c1.1-1.8 1.7-3.73 1.7-5.9 0-6.23-5.1-11.27-11.3-11.27-6.3 0-11.3 5.04-11.3 11.28 0 6.25 5 11.4 11.3 11.4 2.1 0 4.1-.7 5.8-1.67l24.6 24.6c-.7.84-1.4 1.8-1.9 2.76l-37.4-15.97c.1-.36.1-.72.1-1.08 0-6.24-5-11.28-11.3-11.28-6.2 0-11.3 5.04-11.3 11.28 0 6.24 5.1 11.4 11.3 11.4 4 0 7.4-2.04 9.5-5.16l37.1 15.95c-.3 1.2-.4 2.4-.5 3.72h-29.4c-1.2-4.92-5.7-8.52-10.9-8.52-6.3 0-11.4 5.04-11.4 11.28 0 6.24 5.1 11.28 11.4 11.28 5.2 0 9.7-3.6 10.9-8.5h29.7c.3 1.2.6 2.27 1 3.47l-37.9 16.2c-2.1-3.12-5.5-5.16-9.5-5.16-6.2 0-11.3 5.17-11.3 11.4 0 6.25 5.1 11.3 11.3 11.3 6.3 0 11.3-5.05 11.3-11.3 0-.35 0-.7-.1-1.07l38.6-16.56-.5-1.2c.7 1.2 1.5 2.28 2.5 3.24l-25.9 25.93c-1.7-.96-3.7-1.68-5.8-1.68-6.3 0-11.3 5.16-11.3 11.4s5 11.28 11.3 11.28c6.2 0 11.3-5.04 11.3-11.28 0-2.16-.6-4.08-1.7-5.88l26.3-26.28c3.3 2.15 7.2 3.35 11.4 3.35 11.7 0 21.3-9.6 21.3-21.36 0-11.77-9.6-21.37-21.3-21.37-5 0-9.5 1.68-13.1 4.56z" stroke="#000" stroke-opacity="0" fill="#7aa116"/><use xlink:href="#g" transform="matrix(1,0,0,1,5024.771240411665,2815.827266674157) translate(13.35595703125 25.1875)"/><use xlink:href="#h" transform="matrix(1,0,0,1,5024.771240411665,2815.827266674157) translate(72.12255859375 25.1875)"/><path d="M4728.37 2993.17h13.68v-5.52h-13.68v5.52zm-10.96 0h5.53v-5.52h-5.52v5.52zm10.97-27.36h13.68v-5.4h-13.68v5.4zm-10.96 0h5.53v-5.4h-5.52v5.4zm10.97-30h13.68v-5.4h-13.68v5.4zm-10.96 0h5.53v-5.4h-5.52v5.4zm-7.2.6v-20.87c6.57 4.68 18.4 7.56 33.53 7.56 14 0 28.08-2.77 35.6-8.05v21.36c0 5.4-14.64 11.4-35.6 11.4-20.64 0-33.52-5.87-33.52-11.4zm0 28.2v-18.95c6.57 4.68 18.4 7.56 33.53 7.56 13.68 0 28-2.5 35.6-7.8v19.2c0 5.4-14.64 11.3-35.6 11.3s-33.52-5.77-33.52-11.3zm0 28.1v-18.97c6.57 4.8 18.4 7.68 33.53 7.68 13.68 0 28-2.5 35.6-7.8v19.1c0 5.4-14.64 11.4-35.6 11.4s-33.52-5.77-33.52-11.4zm69.13-86.4c0 5.4-14.64 11.27-35.6 11.27-20.64 0-33.52-5.88-33.52-11.28 0-5.4 12.9-11.4 33.53-11.4 20.96 0 35.6 6 35.6 11.4zm-74.56 0v86.4c0 10.07 15.68 16.8 38.96 16.8 19.76 0 41.04-5.3 41.04-16.8v-86.4c0-11.05-20.64-16.8-41.04-16.8-23.28 0-38.96 6.7-38.96 16.8z" stroke="#000" stroke-opacity="0" fill="#7aa116"/><use xlink:href="#i" transform="matrix(1,0,0,1,4674.771240411665,3018.4909000112357) translate(43.6953125 25.1875)"/><use xlink:href="#j" transform="matrix(1,0,0,1,4674.771240411665,3018.4909000112357) translate(26.43603515625 62.938281249999996)"/><use xlink:href="#k" transform="matrix(1,0,0,1,4674.771240411665,3018.4909000112357) translate(21.51025390625 100.68906249999999)"/><path d="M5861.1 3146.7l.26 3.33.75 3.13 1.24 2.97 1.68 2.75 2.1 2.45 2.44 2.1 2.74 1.67 2.98 1.23 3.13.75 3.36.27h196.45v6.95H5881.5l-4.16-.33-4.2-1-3.98-1.66-3.68-2.24-3.28-2.8-2.8-3.28-2.25-3.68-1.65-4-1-4.18-.34-4.16v-55.05h6.95zm739.1 20.65v6.95h-379.87v-6.95z" stroke="#3a414a" stroke-width=".05" fill="#3a414a"/><path d="M6603.3 3169.1l.7 3.1 1.64 2.1h-5.53v-6.95h3.2z" fill="#3a414a"/><path stroke="#3a414a" stroke-width=".05" fill="#3a414a"/><path d="M5863.45 3025.16h-11.67l5.84-10.1z" fill="#3a414a"/><path d="M5867.47 3025.16h-19.7l9.85-17.06zm-11.33-.6h2.96l-1.48-2.56z" stroke="#3a414a" stroke-width=".05" fill="#3a414a"/><use xlink:href="#l" transform="matrix(1,0,0,1,6078.213058991981,3157.377189598314) translate(0 21.52777777777778)"/><use xlink:href="#m" transform="matrix(1,0,0,1,6078.213058991981,3157.377189598314) translate(65.67708333333334 21.52777777777778)"/><path d="M5811.38 2716.85l4.2 1 3.98 1.66 3.68 2.26 3.28 2.8 2.8 3.28 2.25 3.68 1.65 4 1 4.18.34 4.16v139.47h-6.95v-139.2l-.25-3.34-.76-3.14-1.24-2.97-1.68-2.76-2.1-2.45-2.44-2.1-2.74-1.68-2.98-1.23-3.13-.76-3.35-.26h-197.1v-6.95h197.37zm-662.3 6.63v-6.95h358.98v6.94z" stroke="#3a414a" stroke-width=".05" fill="#3a414a"/><path d="M5834.56 2886.83h-6.95v-3.6h6.96z" fill="#3a414a"/><path stroke="#3a414a" stroke-width=".05" fill="#3a414a"/><path d="M5145.6 2724.64l-14.27-4.64 14.26-4.64z" fill="#3a414a"/><path d="M5149.07 2729.42l-29-9.42 29-9.42z" stroke="#3a414a" stroke-width=".05" fill="#3a414a"/><use xlink:href="#n" transform="matrix(1,0,0,1,5508.054965622158,2706.5559895833335) translate(0 21.52777777777778)"/><use xlink:href="#o" transform="matrix(1,0,0,1,5508.054965622158,2706.5559895833335) translate(6.25 21.52777777777778)"/><path d="M4793.36 2750.3h-24.45l-3.34.27-3.13.75-2.97 1.23-2.75 1.68-2.43 2.1-2.1 2.44-1.68 2.74-1.24 3-.75 3.12-.25 3.34v89.5h-6.95v-89.77l.32-4.17 1-4.2 1.66-3.98 2.26-3.68 2.8-3.28 3.28-2.8 3.67-2.26 3.98-1.65 4.2-1.02 4.16-.33h24.72zm263.6 0h-112.55v-6.95h112.57z" stroke="#3a414a" stroke-width=".05" fill="#3a414a"/><path d="M5060.85 2743.92l-.38 2.9.38 2.9.24.58h-4.22v-6.95h4.2z" fill="#3a414a"/><path stroke="#3a414a" stroke-width=".05" fill="#3a414a"/><path d="M4744.77 2878.22l-4.63-14.27h9.27z" fill="#fff"/><path d="M4744.77 2889.47l-9.42-29h18.84z" stroke="#3a414a" stroke-width=".05" fill="#3a414a"/><use xlink:href="#p" transform="matrix(1,0,0,1,4793.360544964523,2733.3832562574903) translate(0 21.52777777777778)"/><use xlink:href="#q" transform="matrix(1,0,0,1,4793.360544964523,2733.3832562574903) translate(85.31901041666667 21.52777777777778)"/><path d="M5903.94 3107.35l.26 3.35.76 3.13 1.23 2.97 1.67 2.75 2.1 2.44 2.44 2.08 2.75 1.7 2.98 1.22 3.13.75 3.34.26h218.12v6.96h-218.4l-4.15-.32-4.2-1-3.98-1.66-3.7-2.26-3.27-2.8-2.8-3.28-2.25-3.67-1.65-4-1-4.18-.34-4.18v-15.7h6.94zm670.28 20.66v6.96h-332.5V3128zm-670.28-102.84H5897v-9.5h6.94z" stroke="#3a414a" stroke-width=".05" fill="#3a414a"/><path d="M5903.94 3015.74H5897v-3.58h6.94z" fill="#3a414a"/><path stroke="#3a414a" stroke-width=".05" fill="#3a414a"/><path d="M6592 3131.5l-14.28 4.62v-9.27z" fill="#3a414a"/><path d="M6603.23 3131.5l-28.98 9.4v-18.83z" stroke="#3a414a" stroke-width=".05" fill="#3a414a"/><g><use xlink:href="#r" transform="matrix(1,0,0,1,6142.715602448866,3118.043856264981) translate(0 21.52777777777778)"/></g><path d="M5835.44 2735.08l3.7 2.17 2.76 3.26 1.06 2.85h16.74l3.45.27 3.5.85 3.34 1.38 3.06 1.88 2.74 2.34 2.34 2.74 1.88 3.08 1.38 3.33.85 3.5.27 3.47v97.17h-6.95v-96.9l-.2-2.64-.6-2.44-.96-2.32-1.3-2.13-1.63-1.9-1.9-1.63-2.15-1.3-2.3-.97-2.46-.6-2.63-.2h-22.52l-.38-4.32-.7-1.92-1.2-1.42-1.62-.94-2.07-.37-.7.06-1.9.7-1.43 1.2-.94 1.6-.97 5.4h-247.76v-6.95h241.94l.15-.88 2.17-3.7 3.27-2.76 3.92-1.45 2.54-.23zm-397.36 15.22h-279.93v-6.95h279.93z" stroke="#3a414a" stroke-width=".05" fill="#3a414a"/><path d="M5158.24 2750.3h-4.16l.4-1.38.3-3.53-.25-2.05h3.7z" fill="#3a414a"/><path stroke="#3a414a" stroke-width=".05" fill="#3a414a"/><path d="M5879.04 2879.83l-7.5-13h15z" fill="#3a414a"/><path d="M5879.04 2886.78l-13.52-23.42h27.04zm-1.48-16.47l1.48 2.58 1.48-2.57z" stroke="#3a414a" stroke-width=".05" fill="#3a414a"/><g><use xlink:href="#s" transform="matrix(1,0,0,1,5438.081744027715,2733.3832562574903) translate(0 21.52777777777778)"/><use xlink:href="#t" transform="matrix(1,0,0,1,5438.081744027715,2733.3832562574903) translate(86.57552083333334 21.52777777777778)"/></g><path d="M4565.44 2626.9l-6.6 9.07-6.36 9.6-6.15 10.14-5.9 10.72-5.6 11.3-5.3 11.9-4.94 12.5-4.56 13.06-4.1 13.6-3.63 14.12-3.07 14.52-2.5 14.84-1.9 15-1.28 15.06-.62 14.92v14.6l.6 14.15 1.12 13.53 1.6 12.8 2.04 11.98 2.35 11.13 2.62 10.23 2.82 9.35 2.95 8.52 3.05 7.7 3.1 6.97 3.1 6.27 3.12 5.66 3.08 5.1 3.05 4.58 3 4.14 2.95 3.72 2.9 3.36 2.84 3.04 2.8 2.73 2.74 2.47 2.7 2.24 2.67 2.03 2.62 1.82 2.6 1.65 2.57 1.48 2.54 1.34 2.54 1.2 2.52 1.05 2.53.94 2.53.83 2.53.7 2.56.6 2.57.5 2.6.4 2.67.27 2.18.13-.44 6.94-2.32-.15-2.95-.3-2.9-.43-2.86-.56-2.84-.67-2.8-.78-2.82-.93-2.8-1.04-2.8-1.17-2.8-1.32-2.8-1.47-2.82-1.63-2.84-1.8-2.86-2-2.9-2.2-2.92-2.4-2.96-2.68-3-2.94-3.05-3.25-3.1-3.58-3.12-3.96-3.16-4.37-3.2-4.83-3.24-5.34-3.25-5.9-3.25-6.55-3.2-7.23-3.17-7.98-3.05-8.78-2.9-9.63-2.7-10.52-2.42-11.4-2.07-12.26-1.66-13.1-1.16-13.8-.6-14.45v-14.9l.64-15.22 1.28-15.34 1.94-15.3 2.56-15.12 3.14-14.8 3.7-14.4 4.2-13.9 4.64-13.33 5.05-12.77 5.4-12.17 5.75-11.56 6.03-10.97 6.3-10.4 6.54-9.83 6.76-9.3 3.32-4.2h8.87zm297.12-128.76l14.86 1.12 14.2 1.67 13.5 2.17 12.82 2.62 12.13 3 11.45 3.36 10.82 3.66 10.2 3.94 9.6 4.2 9.08 4.4 8.55 4.6 8.08 4.8 7.63 4.98 7.2 5.14 6.8 5.3 6.45 5.48 6.1 5.64 5.77 5.8 5.47 5.96 5.17 6.15 4.9 6.34 4.62 6.54 4.36 6.77 4.12 7 3.86 7.23 3.6 7.53 3.38 7.82 3.1 8.16 2.86 8.54 2.57 8.94 1.45 5.95-6.75 1.64-1.4-5.8-2.5-8.66-2.76-8.25-3-7.9-3.25-7.54-3.5-7.26-3.73-6.98-3.96-6.74-4.2-6.52-4.46-6.3-4.7-6.1-5-5.93-5.27-5.76-5.56-5.58-5.88-5.43-6.22-5.3-6.58-5.12-6.97-4.98-7.38-4.82-7.82-4.64-8.3-4.48-8.8-4.28-9.36-4.07-9.93-3.82-10.54-3.58-11.17-3.27-11.85-2.93-12.5-2.56-13.23-2.12-13.92-1.64-14.57-1.1-15.2-.5-15.76.12-16.22.8-16.57 1.54-16.78 2.26-16.83 3-16.72 3.68-16.44 4.37-16.02 4.98-15.46 5.52-14.8 6-14.04 6.4-13.23 6.7-12.38 6.93-11.56 7.13-10.7 7.25-9.92 7.32-9.13 7.36-6.48 5.7h-10.25l1.3-1.28 2.37-2.2 8.6-7.54 9.35-7.53 10.14-7.5 10.95-7.4 11.8-7.28 12.64-7.1 13.5-6.83 14.3-6.5 15.06-6.1 15.74-5.63 16.3-5.07 16.72-4.44 17-3.76 17.12-3.04 17.07-2.3 16.86-1.55 16.52-.83 16.04-.13z" stroke="#3a414a" stroke-width=".05" fill="#3a414a"/><path d="M4599 2996.52v6.96l-3.66-.08.14-6.95z" fill="#3a414a"/><path stroke="#3a414a" stroke-width=".05" fill="#3a414a"/><path d="M5086.9 2679.95l-9.75-11.4 14.74-2.75z" fill="#3a414a"/><path d="M5088.2 2686.78l-17.6-20.53 26.57-4.97zm-4.5-15.9l1.93 2.23.98-2.78z" stroke="#3a414a" stroke-width=".05" fill="#3a414a"/><g><use xlink:href="#u" transform="matrix(1,0,0,1,4502.146081048107,2591.6199927352145) translate(0 21.52777777777778)"/><use xlink:href="#v" transform="matrix(1,0,0,1,4502.146081048107,2591.6199927352145) translate(86.5451388888889 21.52777777777778)"/></g><path d="M4600 2846a6 6 0 0 1 6-6h277.54a6 6 0 0 1 6 6v308a6 6 0 0 1-6 6H4606a6 6 0 0 1-6-6z" stroke="#000" stroke-width="2" fill-opacity="0"/><defs><path fill="#fff" d="M657 26c-323 0-524-166-541-416h195c15 169 171 246 346 246 202 0 356-106 356-265 5-203-294-238-475-293-239-73-380-191-380-389 0-252 224-419 512-419 294 0 499 171 508 396H992c-17-145-151-228-328-228-193 0-321 102-321 242 0 156 175 211 284 241l149 41c160 44 422 134 422 412 0 244-197 432-541 432" id="w"/><path fill="#fff" d="M140 405l46-156c120 36 205 19 263-150l32-93L54-1118h197c107 313 237 620 324 950 87-331 219-637 326-950h196L606 167c-68 178-176 259-334 259-64 0-113-12-132-21" id="x"/><path fill="#fff" d="M538 24C308 24 148-78 108-271l171-41c32 123 123 178 257 178 156 0 256-77 256-169 0-77-54-128-164-154l-186-44c-203-48-300-148-300-305 0-192 176-326 414-326 230 0 351 112 402 269l-163 42c-31-80-94-158-238-158-133 0-233 69-233 162 0 83 57 129 188 160l169 40c203 48 298 149 298 302 0 196-179 339-441 339" id="y"/><path fill="#fff" d="M598-1118v154H368v674c0 100 37 144 132 144 23 0 62-6 92-12L629-6c-37 13-88 20-134 20-193 0-307-107-307-290v-688H20v-154h168v-266h180v266h230" id="z"/><path fill="#fff" d="M628 24c-324 0-524-230-524-574 0-343 198-582 503-582 237 0 487 146 487 559v75H286c9 234 145 362 343 362 132 0 231-58 273-172l174 48C1024-91 857 24 628 24zM287-650h624c-17-190-120-322-304-322-192 0-309 151-320 322" id="A"/><path fill="#fff" d="M158 0v-1118h175l1 205c55-151 181-225 313-225 147 0 245 90 285 228 53-141 190-228 352-228 194 0 352 125 352 384V0h-181v-749c0-161-105-225-225-225-151 0-243 103-243 244V0H807v-767c0-124-93-207-219-207-131 0-250 92-250 270V0H158" id="B"/><g id="a"><use transform="matrix(0.01953125,0,0,0.01953125,0,0)" xlink:href="#w"/><use transform="matrix(0.01953125,0,0,0.01953125,25.6640625,0)" xlink:href="#x"/><use transform="matrix(0.01953125,0,0,0.01953125,48.14453125,0)" xlink:href="#y"/><use transform="matrix(0.01953125,0,0,0.01953125,69.2578125,0)" xlink:href="#z"/><use transform="matrix(0.01953125,0,0,0.01953125,81.953125,0)" xlink:href="#A"/><use transform="matrix(0.01953125,0,0,0.01953125,105.2734375,0)" xlink:href="#B"/></g><path fill="#fff" d="M52 0l541-1490h220L1361 0h-200l-149-416H398L254 0H52zm404-582h497c-103-290-145-390-251-756-108 377-145 460-246 756" id="C"/><path fill="#fff" d="M158 0v-1118h174v172h12c41-113 157-188 290-188 26 0 70 2 91 3v181c-11-2-60-10-108-10-161 0-279 109-279 260V0H158" id="D"/><path fill="#fff" d="M613 24c-304 0-509-231-509-576 0-350 205-580 509-580 216 0 392 114 453 309l-173 49c-33-115-133-197-280-197-223 0-326 196-326 419 0 220 103 415 326 415 150 0 252-85 285-206l172 49C1010-95 832 24 613 24" id="E"/><path fill="#fff" d="M338-670V0H158v-1490h180v566c73-149 190-208 336-208 226 0 379 139 379 422V0H872v-695c0-172-96-275-252-275-161 0-282 109-282 300" id="F"/><path fill="#fff" d="M158 0v-1118h180V0H158zm91-1301c-68 0-125-53-125-119s57-119 125-119c69 0 126 53 126 119s-57 119-126 119" id="G"/><path fill="#fff" d="M537 14c-226 0-379-139-379-422v-710h180v695c0 172 97 275 253 275 160 0 281-109 281-300v-670h181V0H879v-209C806-46 684 14 537 14" id="H"/><g id="b"><use transform="matrix(0.01953125,0,0,0.01953125,0,0)" xlink:href="#C"/><use transform="matrix(0.01953125,0,0,0.01953125,27.59765625,0)" xlink:href="#D"/><use transform="matrix(0.01953125,0,0,0.01953125,41.9921875,0)" xlink:href="#E"/><use transform="matrix(0.01953125,0,0,0.01953125,64.84375,0)" xlink:href="#F"/><use transform="matrix(0.01953125,0,0,0.01953125,88.49609375,0)" xlink:href="#G"/><use transform="matrix(0.01953125,0,0,0.01953125,98.18359375,0)" xlink:href="#z"/><use transform="matrix(0.01953125,0,0,0.01953125,110.87890625,0)" xlink:href="#A"/><use transform="matrix(0.01953125,0,0,0.01953125,134.19921875,0)" xlink:href="#E"/><use transform="matrix(0.01953125,0,0,0.01953125,157.05078125,0)" xlink:href="#z"/><use transform="matrix(0.01953125,0,0,0.01953125,170.13671875,0)" xlink:href="#H"/><use transform="matrix(0.01953125,0,0,0.01953125,193.7890625,0)" xlink:href="#D"/><use transform="matrix(0.01953125,0,0,0.01953125,208.18359375,0)" xlink:href="#A"/></g><path fill="#fff" d="M645 0H180v-1490h484c435 0 692 280 692 742 0 466-257 748-711 748zM370-168h263c363 0 539-218 539-580 0-358-176-574-521-574H370v1154" id="I"/><path fill="#fff" d="M471 26C259 26 90-98 90-318c0-256 228-303 435-329 202-27 287-16 287-108 0-139-79-219-234-219-161 0-248 86-283 164l-173-57c86-203 278-265 451-265 150 0 419 46 419 395V0H815v-152h-12C765-73 660 26 471 26zm31-159c199 0 310-134 310-271v-155c-30 35-226 55-295 64-131 17-246 59-246 186 0 116 97 176 231 176" id="J"/><path fill="#fff" d="M611 442c-248 0-391-105-460-228l146-94c47 65 117 165 314 165 178 0 307-82 307-266v-224h-17C863-141 792-18 576-18c-268 0-472-195-472-546 0-346 197-568 476-568 216 0 288 133 326 193h17v-179h175V29c0 289-215 413-487 413zm-5-620c203 0 314-146 314-390 0-237-108-403-314-403-213 0-319 180-319 403 0 230 109 390 319 390" id="K"/><g id="c"><use transform="matrix(0.01953125,0,0,0.01953125,0,0)" xlink:href="#I"/><use transform="matrix(0.01953125,0,0,0.01953125,28.8671875,0)" xlink:href="#G"/><use transform="matrix(0.01953125,0,0,0.01953125,38.5546875,0)" xlink:href="#J"/><use transform="matrix(0.01953125,0,0,0.01953125,61.015625,0)" xlink:href="#K"/><use transform="matrix(0.01953125,0,0,0.01953125,85.546875,0)" xlink:href="#D"/><use transform="matrix(0.01953125,0,0,0.01953125,100.60546875,0)" xlink:href="#J"/><use transform="matrix(0.01953125,0,0,0.01953125,123.06640625,0)" xlink:href="#B"/></g><path d="M135 0v-1490h591c327 0 492 160 492 383 0 177-115 286-268 320v15c168 8 326 140 326 361 0 236-176 411-512 411H135zm305-251h264c179 0 258-76 258-189 0-125-97-215-250-215H440v404zm0-613h241c131 0 228-74 228-194 0-109-79-183-222-183H440v377" id="L"/><path d="M128 0v-1118h290v195h12c54-169 184-238 367-200v268c-27-8-86-15-130-15-138 0-239 95-239 234V0H128" id="M"/><path d="M628 22C291 22 81-210 81-554c0-346 210-578 547-578 336 0 547 232 547 578 0 344-211 576-547 576zm0-236c160 0 242-146 242-341 0-197-82-341-242-341S387-753 387-555c0 195 81 341 241 341" id="N"/><path d="M361 0L31-1118h315c68 295 127 523 188 845 63-317 128-551 199-845h276c71 296 131 525 196 846 57-321 119-552 186-846h319L1378 0h-305c-73-261-148-486-204-771C813-484 740-261 666 0H361" id="O"/><path d="M572 22C302 22 117-98 78-306l279-48c29 105 101 156 224 156 114 0 185-48 185-115 0-118-228-130-337-155-215-49-322-150-322-317 0-215 187-347 470-347 265 0 424 116 466 298l-266 47c-24-76-87-130-196-130-98 0-174 46-174 113 0 56 38 95 144 117l201 40c216 44 320 143 320 302 0 220-207 367-500 367" id="P"/><path d="M633 22C291 22 81-200 81-553c0-345 210-579 537-579 292 0 525 185 525 567v84H378c7 183 109 277 260 277 105 0 184-46 216-132l272 51C1071-99 893 22 633 22zM380-669h474c-15-146-94-237-233-237-143 0-229 99-241 237" id="Q"/><path d="M768-1560L288 224H28l480-1784h260" id="R"/><path d="M786 20C389 20 94-260 94-744c0-487 299-766 692-766 339 0 597 194 641 529h-309c-28-162-156-258-326-258-233 0-388 179-388 495 0 323 157 493 387 493 170 0 298-97 328-259h309c-34 277-266 530-642 530" id="S"/><path d="M428-1490V0H128v-1490h300" id="T"/><path d="M128 0v-1118h300V0H128zm150-1264c-91 0-165-68-165-154 0-85 74-154 165-154 90 0 165 69 165 154 0 86-75 154-165 154" id="U"/><path d="M428-647V0H128v-1118h283l4 231c63-156 176-245 348-245 232 0 384 159 384 421V0H847v-659c0-139-76-222-202-222-128 0-217 86-217 234" id="V"/><path d="M683-1118v229H474v562c0 71 29 104 102 104 23 0 73-7 95-13l43 225C647 9 580 16 520 16 296 16 174-96 174-301v-588H20v-229h154v-266h300v266h209" id="W"/><g id="d"><use transform="matrix(0.0126953125,0,0,0.0126953125,0,0)" xlink:href="#L"/><use transform="matrix(0.0126953125,0,0,0.0126953125,17.2021484375,0)" xlink:href="#M"/><use transform="matrix(0.0126953125,0,0,0.0126953125,27.1552734375,0)" xlink:href="#N"/><use transform="matrix(0.0126953125,0,0,0.0126953125,42.7451171875,0)" xlink:href="#O"/><use transform="matrix(0.0126953125,0,0,0.0126953125,64.84765625,0)" xlink:href="#P"/><use transform="matrix(0.0126953125,0,0,0.0126953125,79.4091796875,0)" xlink:href="#Q"/><use transform="matrix(0.0126953125,0,0,0.0126953125,94.8974609375,0)" xlink:href="#M"/><use transform="matrix(0.0126953125,0,0,0.0126953125,104.685546875,0)" xlink:href="#R"/><use transform="matrix(0.0126953125,0,0,0.0126953125,114.7783203125,0)" xlink:href="#S"/><use transform="matrix(0.0126953125,0,0,0.0126953125,134.01171875,0)" xlink:href="#T"/><use transform="matrix(0.0126953125,0,0,0.0126953125,141.0576171875,0)" xlink:href="#U"/><use transform="matrix(0.0126953125,0,0,0.0126953125,148.103515625,0)" xlink:href="#Q"/><use transform="matrix(0.0126953125,0,0,0.0126953125,163.591796875,0)" xlink:href="#V"/><use transform="matrix(0.0126953125,0,0,0.0126953125,179.7783203125,0)" xlink:href="#W"/></g><path d="M449 0L49-1490h333c89 395 194 758 253 1185 65-426 176-790 269-1185h317c93 394 201 758 268 1181 60-425 164-788 253-1181h334L1675 0h-348c-90-376-204-711-266-1118C1004-714 886-373 798 0H449" id="X"/><path d="M754 19C571 19 479-89 437-179h-14V0H128v-1490h300v560h9c41-89 129-202 319-202 248 0 453 193 453 575 0 372-197 576-455 576zm-92-241c156 0 240-139 240-336 0-196-83-334-240-334-154 0-241 131-241 334 0 202 88 336 241 336" id="Y"/><path d="M681 22C323 22 94-145 85-462h297c10 151 131 226 296 226 163 0 271-77 271-190 0-102-95-149-257-189l-164-41c-252-61-403-188-403-405 0-269 236-449 560-449 330 0 546 183 551 445H941c-11-119-106-188-259-188-156 0-244 72-244 172-3 156 226 185 373 221 250 61 445 186 445 436 0 271-213 446-575 446" id="Z"/><path d="M628 22C291 22 81-210 81-554c0-346 210-578 547-578 265 0 455 142 497 372l-279 52c-25-116-99-188-215-188-160 0-244 139-244 341 0 200 84 341 244 341 116 0 193-74 217-195l279 51C1085-123 896 22 628 22" id="aa"/><path d="M128 0v-1490h300v802h17l366-430h347L740-633 1179 0H826L514-456l-86 97V0H128" id="ab"/><g id="e"><use transform="matrix(0.0126953125,0,0,0.0126953125,0,0)" xlink:href="#X"/><use transform="matrix(0.0126953125,0,0,0.0126953125,25.6826171875,0)" xlink:href="#Q"/><use transform="matrix(0.0126953125,0,0,0.0126953125,41.1708984375,0)" xlink:href="#Y"/><use transform="matrix(0.0126953125,0,0,0.0126953125,57.560546875,0)" xlink:href="#Z"/><use transform="matrix(0.0126953125,0,0,0.0126953125,74.5849609375,0)" xlink:href="#N"/><use transform="matrix(0.0126953125,0,0,0.0126953125,90.5302734375,0)" xlink:href="#aa"/><use transform="matrix(0.0126953125,0,0,0.0126953125,105.828125,0)" xlink:href="#ab"/><use transform="matrix(0.0126953125,0,0,0.0126953125,120.326171875,0)" xlink:href="#Q"/><use transform="matrix(0.0126953125,0,0,0.0126953125,135.814453125,0)" xlink:href="#W"/></g><path d="M795 20C377 20 94-272 94-743c0-483 302-767 694-767 335 0 593 206 635 500h-310c-42-142-154-229-320-229-230 0-389 177-389 493s154 495 393 495c212 0 340-120 345-311H818v-232h620v186c0 391-269 628-643 628" id="ac"/><path d="M440 22C227 22 68-92 68-313c0-250 202-322 422-343 195-21 271-24 271-105 0-95-63-149-175-149-116 0-187 57-211 129l-275-46c57-194 237-305 487-305 240 0 474 108 474 379V0H777v-155h-10C713-51 605 22 440 22zm85-211c140 0 238-93 238-211v-121c-37 26-156 42-222 51-111 16-185 59-185 149 0 87 70 132 169 132" id="ad"/><path d="M120 396l69-226c123 42 245 23 254-107l8-60L31-1118h319c87 288 199 559 259 872 72-308 185-583 277-872h315L726 132c-68 181-186 294-410 294-79 0-153-13-196-30" id="ae"/><g id="f"><use transform="matrix(0.0126953125,0,0,0.0126953125,0,0)" xlink:href="#ac"/><use transform="matrix(0.0126953125,0,0,0.0126953125,19.5126953125,0)" xlink:href="#ad"/><use transform="matrix(0.0126953125,0,0,0.0126953125,34.607421875,0)" xlink:href="#W"/><use transform="matrix(0.0126953125,0,0,0.0126953125,43.875,0)" xlink:href="#Q"/><use transform="matrix(0.0126953125,0,0,0.0126953125,59.0078125,0)" xlink:href="#O"/><use transform="matrix(0.0126953125,0,0,0.0126953125,81.046875,0)" xlink:href="#ad"/><use transform="matrix(0.0126953125,0,0,0.0126953125,95.697265625,0)" xlink:href="#ae"/></g><path d="M75-1237v-253h1217v253H837V0H531v-1237H75" id="af"/><path d="M135 0v-1490h581c339 0 533 210 533 503 0 295-197 500-540 500H440V0H135zm305-733h220c186 0 274-104 274-254s-88-251-275-251H440v505" id="ag"/><g id="g"><use transform="matrix(0.0126953125,0,0,0.0126953125,0,0)" xlink:href="#af"/><use transform="matrix(0.0126953125,0,0,0.0126953125,16.529296875,0)" xlink:href="#S"/><use transform="matrix(0.0126953125,0,0,0.0126953125,35.7626953125,0)" xlink:href="#ag"/></g><g id="h"><use transform="matrix(0.0126953125,0,0,0.0126953125,0,0)" xlink:href="#S"/><use transform="matrix(0.0126953125,0,0,0.0126953125,19.2333984375,0)" xlink:href="#T"/><use transform="matrix(0.0126953125,0,0,0.0126953125,26.279296875,0)" xlink:href="#U"/><use transform="matrix(0.0126953125,0,0,0.0126953125,33.3251953125,0)" xlink:href="#Q"/><use transform="matrix(0.0126953125,0,0,0.0126953125,48.8134765625,0)" xlink:href="#V"/><use transform="matrix(0.0126953125,0,0,0.0126953125,65,0)" xlink:href="#W"/></g><g id="i"><use transform="matrix(0.0126953125,0,0,0.0126953125,0,0)" xlink:href="#af"/><use transform="matrix(0.0126953125,0,0,0.0126953125,16.529296875,0)" xlink:href="#S"/><use transform="matrix(0.0126953125,0,0,0.0126953125,35.7626953125,0)" xlink:href="#ag"/></g><path d="M135 0v-1490h997v253H440v360h640v249H440v375h694V0H135" id="ah"/><path d="M625 442c-280 0-454-114-503-274l258-72c28 63 97 128 243 128 153 0 246-69 246-216v-206h-23C805-108 717-16 536-16 284-16 81-191 81-561c0-378 208-571 456-571 188 0 280 113 321 202h13v-188h295V-9c0 303-226 451-541 451zm5-686c153 0 240-119 240-319 0-198-86-329-240-329-158 0-241 137-241 329 0 195 85 319 241 319" id="ai"/><g id="j"><use transform="matrix(0.0126953125,0,0,0.0126953125,0,0)" xlink:href="#ah"/><use transform="matrix(0.0126953125,0,0,0.0126953125,15.79296875,0)" xlink:href="#V"/><use transform="matrix(0.0126953125,0,0,0.0126953125,31.9794921875,0)" xlink:href="#ai"/><use transform="matrix(0.0126953125,0,0,0.0126953125,48.4072265625,0)" xlink:href="#U"/><use transform="matrix(0.0126953125,0,0,0.0126953125,55.453125,0)" xlink:href="#V"/><use transform="matrix(0.0126953125,0,0,0.0126953125,71.6396484375,0)" xlink:href="#Q"/></g><path d="M428-647V0H128v-1490h294v586c65-146 175-228 341-228 232 0 385 159 385 421V0H847v-659c0-139-76-222-202-222-128 0-217 86-217 234" id="aj"/><path d="M537 19C279 19 81-185 81-557c0-382 206-575 454-575 190 0 278 113 318 202h10v-560h300V0H868v-179h-15C812-89 719 19 537 19zm92-241c153 0 240-134 240-336 0-203-86-334-240-334-158 0-240 138-240 334 0 197 84 336 240 336" id="ak"/><g id="k"><use transform="matrix(0.0126953125,0,0,0.0126953125,0,0)" xlink:href="#aj"/><use transform="matrix(0.0126953125,0,0,0.0126953125,16.1865234375,0)" xlink:href="#ad"/><use transform="matrix(0.0126953125,0,0,0.0126953125,31.28125,0)" xlink:href="#V"/><use transform="matrix(0.0126953125,0,0,0.0126953125,47.4677734375,0)" xlink:href="#ak"/><use transform="matrix(0.0126953125,0,0,0.0126953125,63.857421875,0)" xlink:href="#T"/><use transform="matrix(0.0126953125,0,0,0.0126953125,70.9033203125,0)" xlink:href="#Q"/><use transform="matrix(0.0126953125,0,0,0.0126953125,86.3916015625,0)" xlink:href="#M"/></g><path d="M545 20c-263 0-445-160-445-446v-80h190v80c0 182 102 279 255 279 152 0 254-97 254-279v-1064h190v1064c0 286-181 446-444 446" id="al"/><path d="M657 26c-323 0-524-166-541-416h195c15 169 171 246 346 246 202 0 356-106 356-265 5-203-294-238-475-293-239-73-380-191-380-389 0-252 224-419 512-419 294 0 499 171 508 396H992c-17-145-151-228-328-228-193 0-321 102-321 242 0 156 175 211 284 241l149 41c160 44 422 134 422 412 0 244-197 432-541 432" id="am"/><path d="M784 20c-382 0-662-292-662-764 0-473 280-766 662-766s660 293 660 766c0 472-278 764-660 764zm0-176c266 0 475-207 475-588 0-383-209-590-475-590-268 0-477 208-477 590 0 380 209 588 477 588" id="an"/><path d="M180 0v-1490h224l606 953c40 63 108 177 176 312-27-437-7-821-13-1265h190V0h-226C860-448 622-778 356-1262c27 476 11 792 15 1262H180" id="ao"/><g id="l"><use transform="matrix(0.010850694444444444,0,0,0.010850694444444444,0,0)" xlink:href="#al"/><use transform="matrix(0.010850694444444444,0,0,0.010850694444444444,12.684461805555555,0)" xlink:href="#am"/><use transform="matrix(0.010850694444444444,0,0,0.010850694444444444,26.94227430555556,0)" xlink:href="#an"/><use transform="matrix(0.010850694444444444,0,0,0.010850694444444444,43.93446180555556,0)" xlink:href="#ao"/></g><path d="M180 0v-1490h270l367 940c28 72 75 218 110 339 35-117 81-264 110-339l362-940h271V0h-187c2-448-5-837 7-1287-157 497-311 829-483 1287H842C666-458 514-784 354-1284c12 438 5 843 7 1284H180" id="ap"/><path d="M628 24c-324 0-524-230-524-574 0-343 198-582 503-582 237 0 487 146 487 559v75H286c9 234 145 362 343 362 132 0 231-58 273-172l174 48C1024-91 857 24 628 24zM287-650h624c-17-190-120-322-304-322-192 0-309 151-320 322" id="aq"/><path d="M538 24C308 24 148-78 108-271l171-41c32 123 123 178 257 178 156 0 256-77 256-169 0-77-54-128-164-154l-186-44c-203-48-300-148-300-305 0-192 176-326 414-326 230 0 351 112 402 269l-163 42c-31-80-94-158-238-158-133 0-233 69-233 162 0 83 57 129 188 160l169 40c203 48 298 149 298 302 0 196-179 339-441 339" id="ar"/><path d="M471 26C259 26 90-98 90-318c0-256 228-303 435-329 202-27 287-16 287-108 0-139-79-219-234-219-161 0-248 86-283 164l-173-57c86-203 278-265 451-265 150 0 419 46 419 395V0H815v-152h-12C765-73 660 26 471 26zm31-159c199 0 310-134 310-271v-155c-30 35-226 55-295 64-131 17-246 59-246 186 0 116 97 176 231 176" id="as"/><path d="M611 442c-248 0-391-105-460-228l146-94c47 65 117 165 314 165 178 0 307-82 307-266v-224h-17C863-141 792-18 576-18c-268 0-472-195-472-546 0-346 197-568 476-568 216 0 288 133 326 193h17v-179h175V29c0 289-215 413-487 413zm-5-620c203 0 314-146 314-390 0-237-108-403-314-403-213 0-319 180-319 403 0 230 109 390 319 390" id="at"/><g id="m"><use transform="matrix(0.008680555555555556,0,0,0.008680555555555556,0,0)" xlink:href="#ap"/><use transform="matrix(0.008680555555555556,0,0,0.008680555555555556,16.05902777777778,0)" xlink:href="#aq"/><use transform="matrix(0.008680555555555556,0,0,0.008680555555555556,26.423611111111118,0)" xlink:href="#ar"/><use transform="matrix(0.008680555555555556,0,0,0.008680555555555556,35.80729166666667,0)" xlink:href="#ar"/><use transform="matrix(0.008680555555555556,0,0,0.008680555555555556,45.190972222222236,0)" xlink:href="#as"/><use transform="matrix(0.008680555555555556,0,0,0.008680555555555556,55.173611111111114,0)" xlink:href="#at"/><use transform="matrix(0.008680555555555556,0,0,0.008680555555555556,66.07638888888889,0)" xlink:href="#aq"/></g><g id="o"><use transform="matrix(0.010850694444444444,0,0,0.010850694444444444,0,0)" xlink:href="#ap"/><use transform="matrix(0.010850694444444444,0,0,0.010850694444444444,20.07378472222222,0)" xlink:href="#aq"/><use transform="matrix(0.010850694444444444,0,0,0.010850694444444444,33.029513888888886,0)" xlink:href="#ar"/><use transform="matrix(0.010850694444444444,0,0,0.010850694444444444,44.75911458333333,0)" xlink:href="#ar"/><use transform="matrix(0.010850694444444444,0,0,0.010850694444444444,56.48871527777778,0)" xlink:href="#as"/><use transform="matrix(0.010850694444444444,0,0,0.010850694444444444,68.96701388888889,0)" xlink:href="#at"/><use transform="matrix(0.010850694444444444,0,0,0.010850694444444444,82.59548611111111,0)" xlink:href="#aq"/></g><path d="M180 0v-1490h908v168H370v486h669v168H370v500h727V0H180" id="au"/><path d="M338-670V0H158v-1118h173l1 207c72-158 192-221 342-221 226 0 378 139 378 422V0H872v-695c0-172-96-275-252-275-161 0-282 109-282 300" id="av"/><path d="M613 24c-304 0-509-231-509-576 0-350 205-580 509-580 216 0 392 114 453 309l-173 49c-33-115-133-197-280-197-223 0-326 196-326 419 0 220 103 415 326 415 150 0 252-85 285-206l172 49C1010-95 832 24 613 24" id="aw"/><path d="M613 24c-304 0-509-231-509-576 0-350 205-580 509-580 305 0 511 230 511 580 0 345-206 576-511 576zm0-161c226 0 329-195 329-415 0-222-103-419-329-419-223 0-326 196-326 419 0 220 103 415 326 415" id="ax"/><path d="M577 24c-279 0-473-224-473-580 0-354 195-576 474-576 218 0 287 134 324 193h14v-551h180V0H922v-173h-20C865-111 790 24 577 24zm27-161c203 0 314-172 314-421 0-247-108-413-314-413-212 0-317 181-317 413 0 235 108 421 317 421" id="ay"/><g id="p"><use transform="matrix(0.010850694444444444,0,0,0.010850694444444444,0,0)" xlink:href="#au"/><use transform="matrix(0.010850694444444444,0,0,0.010850694444444444,13.35720486111111,0)" xlink:href="#av"/><use transform="matrix(0.010850694444444444,0,0,0.010850694444444444,26.48654513888889,0)" xlink:href="#aw"/><use transform="matrix(0.010850694444444444,0,0,0.010850694444444444,39.181857638888886,0)" xlink:href="#ax"/><use transform="matrix(0.010850694444444444,0,0,0.010850694444444444,52.506510416666664,0)" xlink:href="#ay"/><use transform="matrix(0.010850694444444444,0,0,0.010850694444444444,66.11328125,0)" xlink:href="#aq"/></g><path d="M180 0v-1490h901v168H370v510h643v168H370V0H180" id="az"/><path d="M158 0v-1118h174v172h12c41-113 157-188 290-188 26 0 70 2 91 3v181c-11-2-60-10-108-10-161 0-279 109-279 260V0H158" id="aA"/><path d="M158 0v-1118h175l1 205c55-151 181-225 313-225 147 0 245 90 285 228 53-141 190-228 352-228 194 0 352 125 352 384V0h-181v-749c0-161-105-225-225-225-151 0-243 103-243 244V0H807v-767c0-124-93-207-219-207-131 0-250 92-250 270V0H158" id="aB"/><g id="q"><use transform="matrix(0.010850694444444444,0,0,0.010850694444444444,0,0)" xlink:href="#az"/><use transform="matrix(0.010850694444444444,0,0,0.010850694444444444,12.467447916666666,0)" xlink:href="#aA"/><use transform="matrix(0.010850694444444444,0,0,0.010850694444444444,20.833333333333332,0)" xlink:href="#as"/><use transform="matrix(0.010850694444444444,0,0,0.010850694444444444,33.31163194444444,0)" xlink:href="#aB"/><use transform="matrix(0.010850694444444444,0,0,0.010850694444444444,52.77777777777778,0)" xlink:href="#aq"/></g><path fill="#333" d="M135 0v-1490h468l242 684c30 94 76 293 111 455 34-161 80-360 110-455l238-684h470V0h-307c0-447-3-765 11-1227-122 503-246 788-395 1227H826C676-435 552-717 427-1215c15 453 11 775 11 1215H135" id="aC"/><path fill="#333" d="M633 22C291 22 81-200 81-553c0-345 210-579 537-579 292 0 525 185 525 567v84H378c7 183 109 277 260 277 105 0 184-46 216-132l272 51C1071-99 893 22 633 22zM380-669h474c-15-146-94-237-233-237-143 0-229 99-241 237" id="aD"/><path fill="#333" d="M572 22C302 22 117-98 78-306l279-48c29 105 101 156 224 156 114 0 185-48 185-115 0-118-228-130-337-155-215-49-322-150-322-317 0-215 187-347 470-347 265 0 424 116 466 298l-266 47c-24-76-87-130-196-130-98 0-174 46-174 113 0 56 38 95 144 117l201 40c216 44 320 143 320 302 0 220-207 367-500 367" id="aE"/><path fill="#333" d="M440 22C227 22 68-92 68-313c0-250 202-322 422-343 195-21 271-24 271-105 0-95-63-149-175-149-116 0-187 57-211 129l-275-46c57-194 237-305 487-305 240 0 474 108 474 379V0H777v-155h-10C713-51 605 22 440 22zm85-211c140 0 238-93 238-211v-121c-37 26-156 42-222 51-111 16-185 59-185 149 0 87 70 132 169 132" id="aF"/><path fill="#333" d="M625 442c-280 0-454-114-503-274l258-72c28 63 97 128 243 128 153 0 246-69 246-216v-206h-23C805-108 717-16 536-16 284-16 81-191 81-561c0-378 208-571 456-571 188 0 280 113 321 202h13v-188h295V-9c0 303-226 451-541 451zm5-686c153 0 240-119 240-319 0-198-86-329-240-329-158 0-241 137-241 329 0 195 85 319 241 319" id="aG"/><g id="r"><use transform="matrix(0.010850694444444444,0,0,0.010850694444444444,0,0)" xlink:href="#aC"/><use transform="matrix(0.010850694444444444,0,0,0.010850694444444444,20.703125,0)" xlink:href="#aD"/><use transform="matrix(0.010850694444444444,0,0,0.010850694444444444,33.94097222222222,0)" xlink:href="#aE"/><use transform="matrix(0.010850694444444444,0,0,0.010850694444444444,46.38671875,0)" xlink:href="#aE"/><use transform="matrix(0.010850694444444444,0,0,0.010850694444444444,58.83246527777778,0)" xlink:href="#aF"/><use transform="matrix(0.010850694444444444,0,0,0.010850694444444444,71.73394097222223,0)" xlink:href="#aG"/><use transform="matrix(0.010850694444444444,0,0,0.010850694444444444,85.77473958333334,0)" xlink:href="#aD"/></g><path d="M645 0H180v-1490h484c435 0 692 280 692 742 0 466-257 748-711 748zM370-168h263c363 0 539-218 539-580 0-358-176-574-521-574H370v1154" id="aH"/><g id="s"><use transform="matrix(0.010850694444444444,0,0,0.010850694444444444,0,0)" xlink:href="#aH"/><use transform="matrix(0.010850694444444444,0,0,0.010850694444444444,16.03732638888889,0)" xlink:href="#aq"/><use transform="matrix(0.010850694444444444,0,0,0.010850694444444444,28.99305555555556,0)" xlink:href="#aw"/><use transform="matrix(0.010850694444444444,0,0,0.010850694444444444,41.68836805555556,0)" xlink:href="#ax"/><use transform="matrix(0.010850694444444444,0,0,0.010850694444444444,55.01302083333333,0)" xlink:href="#ay"/><use transform="matrix(0.010850694444444444,0,0,0.010850694444444444,68.61979166666667,0)" xlink:href="#aq"/></g><g id="t"><use transform="matrix(0.008680555555555556,0,0,0.008680555555555556,0,0)" xlink:href="#az"/><use transform="matrix(0.008680555555555556,0,0,0.008680555555555556,9.973958333333334,0)" xlink:href="#aA"/><use transform="matrix(0.008680555555555556,0,0,0.008680555555555556,16.666666666666668,0)" xlink:href="#as"/><use transform="matrix(0.008680555555555556,0,0,0.008680555555555556,26.649305555555557,0)" xlink:href="#aB"/><use transform="matrix(0.008680555555555556,0,0,0.008680555555555556,42.22222222222223,0)" xlink:href="#aq"/></g><path fill="#333" d="M135 0v-1490h997v253H440v360h640v249H440v375h694V0H135" id="aI"/><path fill="#333" d="M428-647V0H128v-1118h283l4 231c63-156 176-245 348-245 232 0 384 159 384 421V0H847v-659c0-139-76-222-202-222-128 0-217 86-217 234" id="aJ"/><path fill="#333" d="M628 22C291 22 81-210 81-554c0-346 210-578 547-578 265 0 455 142 497 372l-279 52c-25-116-99-188-215-188-160 0-244 139-244 341 0 200 84 341 244 341 116 0 193-74 217-195l279 51C1085-123 896 22 628 22" id="aK"/><path fill="#333" d="M628 22C291 22 81-210 81-554c0-346 210-578 547-578 336 0 547 232 547 578 0 344-211 576-547 576zm0-236c160 0 242-146 242-341 0-197-82-341-242-341S387-753 387-555c0 195 81 341 241 341" id="aL"/><path fill="#333" d="M537 19C279 19 81-185 81-557c0-382 206-575 454-575 190 0 278 113 318 202h10v-560h300V0H868v-179h-15C812-89 719 19 537 19zm92-241c153 0 240-134 240-336 0-203-86-334-240-334-158 0-240 138-240 334 0 197 84 336 240 336" id="aM"/><g id="u"><use transform="matrix(0.010850694444444444,0,0,0.010850694444444444,0,0)" xlink:href="#aI"/><use transform="matrix(0.010850694444444444,0,0,0.010850694444444444,13.49826388888889,0)" xlink:href="#aJ"/><use transform="matrix(0.010850694444444444,0,0,0.010850694444444444,27.33289930555556,0)" xlink:href="#aK"/><use transform="matrix(0.010850694444444444,0,0,0.010850694444444444,40.407986111111114,0)" xlink:href="#aL"/><use transform="matrix(0.010850694444444444,0,0,0.010850694444444444,54.03645833333333,0)" xlink:href="#aM"/><use transform="matrix(0.010850694444444444,0,0,0.010850694444444444,68.04470486111111,0)" xlink:href="#aD"/></g><path fill="#333" d="M135 0v-1490h980v253H440v416h609v249H440V0H135" id="aN"/><path fill="#333" d="M128 0v-1118h290v195h12c54-169 184-238 367-200v268c-27-8-86-15-130-15-138 0-239 95-239 234V0H128" id="aO"/><path fill="#333" d="M128 0v-1118h278l12 217c60-163 185-234 319-234 143 0 236 81 288 251 63-172 205-251 359-251 205 0 357 138 357 381V0h-301v-697c0-126-76-187-177-187-114 0-184 79-184 196V0H789v-705c0-109-72-179-174-179-106 0-187 74-187 208V0H128" id="aP"/><g id="v"><use transform="matrix(0.010850694444444444,0,0,0.010850694444444444,0,0)" xlink:href="#aN"/><use transform="matrix(0.010850694444444444,0,0,0.010850694444444444,12.608506944444445,0)" xlink:href="#aO"/><use transform="matrix(0.010850694444444444,0,0,0.010850694444444444,21.354166666666664,0)" xlink:href="#aF"/><use transform="matrix(0.010850694444444444,0,0,0.010850694444444444,34.25564236111111,0)" xlink:href="#aP"/><use transform="matrix(0.010850694444444444,0,0,0.010850694444444444,54.53559027777778,0)" xlink:href="#aD"/></g></defs></g></svg>