<svg xmlns="http://www.w3.org/2000/svg" xmlns:xlink="http://www.w3.org/1999/xlink" xmlns:lucid="lucid" width="2028" height="912"><g transform="translate(-4403 -2402)" lucid:page-tab-id="0_0"><path d="M1500-1000h6000v5000H1500z" fill="#f2f3f5"/><path d="M1600-514a6 6 0 0 1 6-6h5390.16a6 6 0 0 1 6 6v4195.9a6 6 0 0 1-6 6H1606a6 6 0 0 1-6-6z" stroke="#3a414a" stroke-width="3" fill="#fff"/><path d="M1600-606.4a6 6 0 0 1 6-6h572.42a6 6 0 0 1 6 6v68.4a6 6 0 0 1-6 6H1606a6 6 0 0 1-6-6z" fill="#3a414a"/><use xlink:href="#a" transform="matrix(1,0,0,1,1616,-596.3984375) translate(0 39.05078125)"/><use xlink:href="#b" transform="matrix(1,0,0,1,1616,-596.3984375) translate(151.5625 39.05078125)"/><use xlink:href="#c" transform="matrix(1,0,0,1,1616,-596.3984375) translate(394.31640625 39.05078125)"/><path d="M6315.17 3187.6c0-1.18-.96-2.13-2.16-2.13h-29.4c-1.2 0-2.15.95-2.15 2.13v5.3c0 1.2.96 2.13 2.16 2.13h29.4c1.2 0 2.17-.94 2.17-2.12v-5.3zm4.08 10.03c0 .94-.72 1.77-1.68 1.77h-105.6c-.96 0-1.68-.83-1.68-1.77v-14.87c0-.94.7-1.77 1.67-1.77h105.6c.96 0 1.68.82 1.68 1.76v14.87zm-1.68-22.07h-105.6c-3.96 0-7.2 3.3-7.2 7.2v14.87c0 3.9 3.24 7.2 7.2 7.2h105.6c3.96 0 7.2-3.3 7.2-7.2v-14.87c0-3.9-3.24-7.2-7.2-7.2zm-97.68-19.6v-54.03h89.75v54.05h-89.76zm91.3-59.57h-93c-2.03 0-3.83 1.76-3.83 3.88v57.23c0 2.13 1.8 3.9 3.84 3.9h93c2.17 0 3.85-1.77 3.85-3.9v-57.22c0-2.13-1.68-3.9-3.84-3.9zm8.05 67.36c0 .95-.72 1.77-1.68 1.77h-105.6c-.96 0-1.68-.82-1.68-1.77v-69.74c0-.94.7-1.76 1.67-1.76h105.6c.96 0 1.68.82 1.68 1.76v69.74zm-1.68-76.93h-105.6c-3.96 0-7.2 3.3-7.2 7.2v69.73c0 4 3.24 7.2 7.2 7.2h105.6c3.96 0 7.2-3.18 7.2-7.2v-69.74c0-3.9-3.24-7.2-7.2-7.2z" stroke="#000" stroke-opacity="0" fill="#232f3e"/><use xlink:href="#d" transform="matrix(1,0,0,1,6174.771240411665,3213.827266674157) translate(-0.27001953125 25.1875)"/><path d="M5820.17 2970v-76.17h54.48v5.38h-46.32v70.8h-8.16zm100.56 3.03v5.5c2.88 0 8.64 2.8 8.64 9.48 0 11.48-10.44 11.83-11.64 11.83h-49.56c-9 0-15.36-4.68-15.36-11.35v-.94c0-6.55 7.2-9.47 11.65-10.64h.24c1.3-.36 2.15-1.64 1.9-2.93v-1.4-.94c0-5.62 4.45-13.8 10.33-16.26 6.6-2.8 12.12-.7 15.6 1.52l2.88-4.57c-6.47-4.22-13.8-4.8-20.63-2-7.32 3.17-13.56 12.88-13.56 21.3v.6c-5.75 1.86-9.83 4.78-12 8.64h-15.35v-76.16h54.36v35.34h5.4v-40.83h-13.55v-10.87h-65.28v87.05h13.56v10.88h19.2c0 .46-.12.93-.12 1.28v.94c0 9.7 8.77 16.85 20.77 16.85h49.56c5.88 0 17.04-3.63 17.04-17.32 0-9.7-8.16-14.97-14.04-14.97zm-8.16-27.6c4.44 0 7.68 3.27 7.68 7.83 0 2.8-3.96 10.18-7.68 16.03-3.84-5.86-7.8-13.1-7.8-16.04 0-4.56 3.24-7.84 7.8-7.84zm0 31.47c.84 0 1.68-.47 2.16-1.17 1.8-2.7 10.92-16.03 10.92-22.47 0-7.6-5.64-13.22-13.08-13.22-7.56 0-13.2 5.62-13.2 13.22 0 6.44 9.12 19.77 10.92 22.47.47.7 1.3 1.17 2.27 1.17z" stroke="#000" stroke-opacity="0" fill="#8c4fff"/><use xlink:href="#e" transform="matrix(1,0,0,1,5784.771240411665,3014.327266674157) translate(20.07421875 25.1875)"/><use xlink:href="#f" transform="matrix(1,0,0,1,5784.771240411665,3014.327266674157) translate(36.4765625 62.938281249999996)"/><path d="M5117.57 2745.4c0-8.77 7.1-15.85 15.9-15.85 8.7 0 15.9 7.08 15.9 15.84 0 8.75-7.2 15.95-15.9 15.95-8.8 0-15.9-7.2-15.9-15.96zm-37.3 50.15c0-3.24 2.6-5.88 5.9-5.88 3.2 0 5.8 2.64 5.8 5.88 0 3.24-2.6 5.88-5.8 5.88-3.3 0-5.9-2.64-5.9-5.88zm5.9-103.32c3.2 0 5.8 2.64 5.8 5.88 0 3.25-2.6 5.9-5.8 5.9-3.3 0-5.9-2.65-5.9-5.9 0-3.23 2.6-5.87 5.9-5.87zm-26 83.28c0-3.23 2.7-5.87 5.9-5.87 3.3 0 5.9 2.64 5.9 5.88 0 3.25-2.6 5.9-5.9 5.9-3.2 0-5.9-2.65-5.9-5.9zm5.8-28.67c0-3.24 2.6-5.88 5.9-5.88 3.2 0 5.8 2.64 5.8 5.88 0 3.24-2.6 5.88-5.8 5.88-3.3 0-5.9-2.63-5.9-5.87zm-5.8-28.68c0-3.24 2.7-5.88 5.9-5.88 3.3 0 5.9 2.64 5.9 5.88 0 3.24-2.6 5.88-5.9 5.88-3.2 0-5.9-2.64-5.9-5.88zm60.2 10.44l-24.6-24.6c1.1-1.8 1.7-3.73 1.7-5.9 0-6.23-5.1-11.27-11.3-11.27-6.3 0-11.3 5.04-11.3 11.28 0 6.25 5 11.4 11.3 11.4 2.1 0 4.1-.7 5.8-1.67l24.6 24.6c-.7.84-1.4 1.8-1.9 2.76l-37.4-15.97c.1-.36.1-.72.1-1.08 0-6.24-5-11.28-11.3-11.28-6.2 0-11.3 5.04-11.3 11.28 0 6.24 5.1 11.4 11.3 11.4 4 0 7.4-2.04 9.5-5.16l37.1 15.95c-.3 1.2-.4 2.4-.5 3.72h-29.4c-1.2-4.92-5.7-8.52-10.9-8.52-6.3 0-11.4 5.04-11.4 11.28 0 6.24 5.1 11.28 11.4 11.28 5.2 0 9.7-3.6 10.9-8.5h29.7c.3 1.2.6 2.27 1 3.47l-37.9 16.2c-2.1-3.12-5.5-5.16-9.5-5.16-6.2 0-11.3 5.17-11.3 11.4 0 6.25 5.1 11.3 11.3 11.3 6.3 0 11.3-5.05 11.3-11.3 0-.35 0-.7-.1-1.07l38.6-16.56-.5-1.2c.7 1.2 1.5 2.28 2.5 3.24l-25.9 25.93c-1.7-.96-3.7-1.68-5.8-1.68-6.3 0-11.3 5.16-11.3 11.4s5 11.28 11.3 11.28c6.2 0 11.3-5.04 11.3-11.28 0-2.16-.6-4.08-1.7-5.88l26.3-26.28c3.3 2.15 7.2 3.35 11.4 3.35 11.7 0 21.3-9.6 21.3-21.36 0-11.77-9.6-21.37-21.3-21.37-5 0-9.5 1.68-13.1 4.56z" stroke="#000" stroke-opacity="0" fill="#7aa116"/><use xlink:href="#g" transform="matrix(1,0,0,1,5024.771240411665,2815.827266674157) translate(15.23486328125 25.1875)"/><use xlink:href="#h" transform="matrix(1,0,0,1,5024.771240411665,2815.827266674157) translate(74.15380859375 25.1875)"/><path d="M4728.37 2990.5h13.68v-5.5h-13.68v5.5zm-10.96 0h5.53v-5.5h-5.52v5.5zm10.97-27.35h13.68v-5.4h-13.68v5.4zm-10.96 0h5.53v-5.4h-5.52v5.4zm10.97-30h13.68v-5.4h-13.68v5.4zm-10.96 0h5.53v-5.4h-5.52v5.4zm-7.2.6v-20.88c6.57 4.68 18.4 7.56 33.53 7.56 14 0 28.08-2.76 35.6-8.04v21.35c0 5.4-14.64 11.4-35.6 11.4-20.64 0-33.52-5.88-33.52-11.4zm0 28.2V2943c6.57 4.67 18.4 7.55 33.53 7.55 13.68 0 28-2.52 35.6-7.8v19.2c0 5.4-14.64 11.28-35.6 11.28s-33.52-5.76-33.52-11.28zm0 28.08v-18.96c6.57 4.8 18.4 7.68 33.53 7.68 13.68 0 28-2.52 35.6-7.8v19.08c0 5.4-14.64 11.4-35.6 11.4s-33.52-5.76-33.52-11.4zm69.13-86.4c0 5.4-14.64 11.28-35.6 11.28-20.64 0-33.52-5.87-33.52-11.27 0-5.4 12.9-11.4 33.53-11.4 20.96 0 35.6 6 35.6 11.4zm-74.56 0v86.4c0 10.08 15.68 16.8 38.96 16.8 19.76 0 41.04-5.28 41.04-16.8v-86.4c0-11.04-20.64-16.8-41.04-16.8-23.28 0-38.96 6.72-38.96 16.8z" stroke="#000" stroke-opacity="0" fill="#7aa116"/><use xlink:href="#i" transform="matrix(1,0,0,1,4674.771240411665,3015.827266674157) translate(44.19677734375 25.1875)"/><use xlink:href="#j" transform="matrix(1,0,0,1,4674.771240411665,3015.827266674157) translate(28.12451171875 62.938281249999996)"/><use xlink:href="#k" transform="matrix(1,0,0,1,4674.771240411665,3015.827266674157) translate(23.7509765625 100.68906249999999)"/><path d="M6201.66 3162.02v6.95H6020.5v-6.95zm-343.4-20.66l.25 3.34.76 3.13 1.23 2.98 1.68 2.75 2.1 2.45 2.43 2.1 2.76 1.67 2.97 1.23 3.06.74v6.98l-1.03-.08-4.2-1-3.98-1.66-3.68-2.25-3.28-2.8-2.8-3.28-2.26-3.68-1.65-3.98-1-4.2-.33-4.17v-56.55h6.95z" stroke="#3a414a" stroke-width=".05" fill="#3a414a"/><path d="M6204.77 3163.76l.7 3.1 1.63 2.1h-5.53v-6.94h3.2z" fill="#3a414a"/><path stroke="#3a414a" stroke-width=".05" fill="#3a414a"/><path d="M5856.53 3018.33H5853l1.77-5.43z" fill="#3a414a"/><path d="M5860.2 3018.33h-10.85l5.42-16.68z" stroke="#3a414a" stroke-width=".05" fill="#3a414a"/><use xlink:href="#l" transform="matrix(1,0,0,1,5875.494486620588,3152.049922924157) translate(0 21.52777777777778)"/><use xlink:href="#m" transform="matrix(1,0,0,1,5875.494486620588,3152.049922924157) translate(65.80946180555556 21.52777777777778)"/><path d="M5875.07 2723.68l4.2 1 3.98 1.66 3.68 2.25 3.28 2.8 2.8 3.27 2.26 3.68 1.65 3.98 1.02 4.2.33 4.16v197.8h-6.95v-197.54l-.27-3.34-.75-3.13-1.23-3-1.68-2.73-2.1-2.45-2.44-2.1-2.74-1.67-3-1.23-3.12-.75-3.34-.27h-163.07v-6.95h163.34zm-702.3 6.62v-6.95h383.3v6.95z" stroke="#3a414a" stroke-width=".05" fill="#3a414a"/><path d="M5898.25 2955h-4.53l1.7-2.67-4.12-2.03v-1.88h6.95z" fill="#3a414a"/><path stroke="#3a414a" stroke-width=".05" fill="#3a414a"/><path d="M5169.28 2731.46l-14.27-4.63 14.28-4.64z" fill="#3a414a"/><path d="M5172.75 2736.24l-28.98-9.4 28.98-9.43z" stroke="#3a414a" stroke-width=".05" fill="#3a414a"/><use xlink:href="#n" transform="matrix(1,0,0,1,5556.065355473958,2713.3832562574903) translate(0 21.52777777777778)"/><use xlink:href="#o" transform="matrix(1,0,0,1,5556.065355473958,2713.3832562574903) translate(52.49565972222222 21.52777777777778)"/><path d="M4793.22 2750.3h-24.3l-3.36.27-3.13.75-2.97 1.23-2.75 1.68-2.43 2.1-2.1 2.44-1.68 2.74-1.24 3-.75 3.12-.25 3.34v86.83h-6.95v-87.1l.32-4.17 1-4.2 1.66-3.98 2.26-3.68 2.8-3.28 3.28-2.8 3.67-2.26 3.98-1.65 4.2-1.02 4.16-.33h24.58zm263.75 0h-110.2v-6.95h110.2z" stroke="#3a414a" stroke-width=".05" fill="#3a414a"/><path d="M5060.85 2743.92l-.38 2.9.38 2.9.24.58h-4.22v-6.95h4.2z" fill="#3a414a"/><path stroke="#3a414a" stroke-width=".05" fill="#3a414a"/><path d="M4744.77 2875.56l-4.63-14.27h9.27z" fill="#fff"/><path d="M4744.77 2886.8l-9.42-28.98h18.84z" stroke="#3a414a" stroke-width=".05" fill="#3a414a"/><use xlink:href="#p" transform="matrix(1,0,0,1,4793.220486111111,2733.3832562574903) translate(0 21.52777777777778)"/><use xlink:href="#q" transform="matrix(1,0,0,1,4793.220486111111,2733.3832562574903) translate(85.78559027777779 21.52777777777778)"/><path d="M5898.25 3102.02l.26 3.35.76 3.13 1.23 2.97 1.68 2.75 2.1 2.45 2.43 2.1 2.76 1.67 2.97 1.23 3.13.75 3.35.27h133.37v6.94h-133.64l-4.16-.33-4.2-1-3.98-1.65-3.68-2.25-3.28-2.8-2.8-3.28-2.26-3.68-1.65-4-1-4.18-.33-4.16v-17.22h6.95zm0-83.7h-6.95v-9.5h6.95z" stroke="#3a414a" stroke-width=".05" fill="#3a414a"/><path d="M5898.25 3008.92h-6.95v-3.6h6.95z" fill="#3a414a"/><path stroke="#3a414a" stroke-width=".05" fill="#3a414a"/><path fill="#3a414a"/><path d="M6181.3 3139.68v-.07h.14zm23.42-13.52l-.94.54v-1.08zm-23.28-13.44h-.13v-.08z" stroke="#3a414a" stroke-width=".05" fill="#3a414a"/><use xlink:href="#r" transform="matrix(1,0,0,1,6052.272339527765,3112.716589590824) translate(0 21.52777777777778)"/><use xlink:href="#s" transform="matrix(1,0,0,1,6052.272339527765,3112.716589590824) translate(52.49565972222222 21.52777777777778)"/><path d="M5835.07 2763.68l4.2 1 3.98 1.66 3.68 2.25 3.28 2.8 2.8 3.27 2.26 3.68 1.65 3.98 1.02 4.2.33 4.16v74.14h-6.95v-73.88l-.27-3.34-.75-3.13-1.23-3-1.68-2.73-2.1-2.45-2.44-2.1-2.74-1.67-3-1.23-3.12-.75-3.34-.27h-290.92v-6.95h291.2zm-712.94 6.62v-6.95h275.92v6.95z" stroke="#3a414a" stroke-width=".05" fill="#3a414a"/><path d="M5122.22 2763.46v6.84h-6.6v-.48l6.45-6.43z" fill="#3a414a"/><path stroke="#3a414a" stroke-width=".05" fill="#3a414a"/><path d="M5854.77 2881.33l-7.5-13h15z" fill="#3a414a"/><path d="M5854.77 2888.28l-13.52-23.42h27.04zm-1.48-16.47l1.47 2.58 1.48-2.57z" stroke="#3a414a" stroke-width=".05" fill="#3a414a"/><use xlink:href="#t" transform="matrix(1,0,0,1,5398.052064715646,2753.3832562574903) translate(0 21.52777777777778)"/><use xlink:href="#u" transform="matrix(1,0,0,1,5398.052064715646,2753.3832562574903) translate(87.44574652777776 21.52777777777778)"/><path d="M4565.44 2626.9l-6.6 9.07-6.36 9.6-6.15 10.14-5.9 10.72-5.6 11.3-5.3 11.9-4.94 12.5-4.56 13.06-4.1 13.6-3.63 14.12-3.07 14.52-2.5 14.84-1.9 15-1.28 15.06-.62 14.92v14.6l.6 14.15 1.12 13.53 1.6 12.8 2.04 11.98 2.35 11.13 2.62 10.23 2.82 9.35 2.95 8.52 3.05 7.7 3.1 6.97 3.1 6.27 3.12 5.66 3.08 5.1 3.05 4.58 3 4.14 2.95 3.72 2.9 3.36 2.84 3.04 2.8 2.73 2.74 2.47 2.7 2.24 2.67 2.03 2.62 1.82 2.6 1.65 2.57 1.48 2.54 1.34 2.54 1.2 2.52 1.05 2.53.94 2.53.83 2.53.7 2.56.6 2.57.5 2.6.4 2.67.27 2.18.13-.44 6.94-2.32-.15-2.95-.3-2.9-.43-2.86-.56-2.84-.67-2.8-.78-2.82-.93-2.8-1.04-2.8-1.17-2.8-1.32-2.8-1.47-2.82-1.63-2.84-1.8-2.86-2-2.9-2.2-2.92-2.4-2.96-2.68-3-2.94-3.05-3.25-3.1-3.58-3.12-3.96-3.16-4.37-3.2-4.83-3.24-5.34-3.25-5.9-3.25-6.55-3.2-7.23-3.17-7.98-3.05-8.78-2.9-9.63-2.7-10.52-2.42-11.4-2.07-12.26-1.66-13.1-1.16-13.8-.6-14.45v-14.9l.64-15.22 1.28-15.34 1.94-15.3 2.56-15.12 3.14-14.8 3.7-14.4 4.2-13.9 4.64-13.33 5.05-12.77 5.4-12.17 5.75-11.56 6.03-10.97 6.3-10.4 6.54-9.83 6.76-9.3 3.32-4.2h8.87zm297.12-128.76l14.86 1.12 14.2 1.67 13.5 2.17 12.82 2.62 12.13 3 11.45 3.36 10.82 3.66 10.2 3.94 9.6 4.2 9.08 4.4 8.55 4.6 8.08 4.8 7.63 4.98 7.2 5.14 6.8 5.3 6.45 5.48 6.1 5.64 5.77 5.8 5.47 5.96 5.17 6.15 4.9 6.34 4.62 6.54 4.36 6.77 4.12 7 3.86 7.23 3.6 7.53 3.38 7.82 3.1 8.16 2.86 8.54 2.57 8.94 1.45 5.95-6.75 1.64-1.4-5.8-2.5-8.66-2.76-8.25-3-7.9-3.25-7.54-3.5-7.26-3.73-6.98-3.96-6.74-4.2-6.52-4.46-6.3-4.7-6.1-5-5.93-5.27-5.76-5.56-5.58-5.88-5.43-6.22-5.3-6.58-5.12-6.97-4.98-7.38-4.82-7.82-4.64-8.3-4.48-8.8-4.28-9.36-4.07-9.93-3.82-10.54-3.58-11.17-3.27-11.85-2.93-12.5-2.56-13.23-2.12-13.92-1.64-14.57-1.1-15.2-.5-15.76.12-16.22.8-16.57 1.54-16.78 2.26-16.83 3-16.72 3.68-16.44 4.37-16.02 4.98-15.46 5.52-14.8 6-14.04 6.4-13.23 6.7-12.38 6.93-11.56 7.13-10.7 7.25-9.92 7.32-9.13 7.36-6.48 5.7h-10.25l1.3-1.28 2.37-2.2 8.6-7.54 9.35-7.53 10.14-7.5 10.95-7.4 11.8-7.28 12.64-7.1 13.5-6.83 14.3-6.5 15.06-6.1 15.74-5.63 16.3-5.07 16.72-4.44 17-3.76 17.12-3.04 17.07-2.3 16.86-1.55 16.52-.83 16.04-.13z" stroke="#3a414a" stroke-width=".05" fill="#3a414a"/><path d="M4599 2996.52v6.96l-3.66-.08.14-6.95z" fill="#3a414a"/><path stroke="#3a414a" stroke-width=".05" fill="#3a414a"/><path d="M5086.9 2679.95l-9.75-11.4 14.74-2.75z" fill="#3a414a"/><path d="M5088.2 2686.78l-17.6-20.53 26.57-4.97zm-4.5-15.9l1.93 2.23.98-2.78z" stroke="#3a414a" stroke-width=".05" fill="#3a414a"/><use xlink:href="#v" transform="matrix(1,0,0,1,4502.146081048107,2591.6199927352145) translate(0 21.52777777777778)"/><use xlink:href="#w" transform="matrix(1,0,0,1,4502.146081048107,2591.6199927352145) translate(86.5451388888889 21.52777777777778)"/><path d="M1600-514a6 6 0 0 1 6-6h5390.16a6 6 0 0 1 6 6v4195.9a6 6 0 0 1-6 6H1606a6 6 0 0 1-6-6z" stroke="#3a414a" stroke-width="3" fill="#fff"/><path d="M1600-606.4a6 6 0 0 1 6-6h572.42a6 6 0 0 1 6 6v68.4a6 6 0 0 1-6 6H1606a6 6 0 0 1-6-6z" fill="#3a414a"/><use xlink:href="#a" transform="matrix(1,0,0,1,1616,-596.3984375) translate(0 39.05078125)"/><use xlink:href="#b" transform="matrix(1,0,0,1,1616,-596.3984375) translate(151.5625 39.05078125)"/><use xlink:href="#c" transform="matrix(1,0,0,1,1616,-596.3984375) translate(394.31640625 39.05078125)"/><path d="M6315.17 3187.6c0-1.18-.96-2.13-2.16-2.13h-29.4c-1.2 0-2.15.95-2.15 2.13v5.3c0 1.2.96 2.13 2.16 2.13h29.4c1.2 0 2.17-.94 2.17-2.12v-5.3zm4.08 10.03c0 .94-.72 1.77-1.68 1.77h-105.6c-.96 0-1.68-.83-1.68-1.77v-14.87c0-.94.7-1.77 1.67-1.77h105.6c.96 0 1.68.82 1.68 1.76v14.87zm-1.68-22.07h-105.6c-3.96 0-7.2 3.3-7.2 7.2v14.87c0 3.9 3.24 7.2 7.2 7.2h105.6c3.96 0 7.2-3.3 7.2-7.2v-14.87c0-3.9-3.24-7.2-7.2-7.2zm-97.68-19.6v-54.03h89.75v54.05h-89.76zm91.3-59.57h-93c-2.03 0-3.83 1.76-3.83 3.88v57.23c0 2.13 1.8 3.9 3.84 3.9h93c2.17 0 3.85-1.77 3.85-3.9v-57.22c0-2.13-1.68-3.9-3.84-3.9zm8.05 67.36c0 .95-.72 1.77-1.68 1.77h-105.6c-.96 0-1.68-.82-1.68-1.77v-69.74c0-.94.7-1.76 1.67-1.76h105.6c.96 0 1.68.82 1.68 1.76v69.74zm-1.68-76.93h-105.6c-3.96 0-7.2 3.3-7.2 7.2v69.73c0 4 3.24 7.2 7.2 7.2h105.6c3.96 0 7.2-3.18 7.2-7.2v-69.74c0-3.9-3.24-7.2-7.2-7.2z" stroke="#000" stroke-opacity="0" fill="#232f3e"/><use xlink:href="#d" transform="matrix(1,0,0,1,6174.771240411665,3213.827266674157) translate(-0.27001953125 25.1875)"/><path d="M5820.17 2970v-76.17h54.48v5.38h-46.32v70.8h-8.16zm100.56 3.03v5.5c2.88 0 8.64 2.8 8.64 9.48 0 11.48-10.44 11.83-11.64 11.83h-49.56c-9 0-15.36-4.68-15.36-11.35v-.94c0-6.55 7.2-9.47 11.65-10.64h.24c1.3-.36 2.15-1.64 1.9-2.93v-1.4-.94c0-5.62 4.45-13.8 10.33-16.26 6.6-2.8 12.12-.7 15.6 1.52l2.88-4.57c-6.47-4.22-13.8-4.8-20.63-2-7.32 3.17-13.56 12.88-13.56 21.3v.6c-5.75 1.86-9.83 4.78-12 8.64h-15.35v-76.16h54.36v35.34h5.4v-40.83h-13.55v-10.87h-65.28v87.05h13.56v10.88h19.2c0 .46-.12.93-.12 1.28v.94c0 9.7 8.77 16.85 20.77 16.85h49.56c5.88 0 17.04-3.63 17.04-17.32 0-9.7-8.16-14.97-14.04-14.97zm-8.16-27.6c4.44 0 7.68 3.27 7.68 7.83 0 2.8-3.96 10.18-7.68 16.03-3.84-5.86-7.8-13.1-7.8-16.04 0-4.56 3.24-7.84 7.8-7.84zm0 31.47c.84 0 1.68-.47 2.16-1.17 1.8-2.7 10.92-16.03 10.92-22.47 0-7.6-5.64-13.22-13.08-13.22-7.56 0-13.2 5.62-13.2 13.22 0 6.44 9.12 19.77 10.92 22.47.47.7 1.3 1.17 2.27 1.17z" stroke="#000" stroke-opacity="0" fill="#8c4fff"/><use xlink:href="#e" transform="matrix(1,0,0,1,5784.771240411665,3014.327266674157) translate(20.07421875 25.1875)"/><use xlink:href="#f" transform="matrix(1,0,0,1,5784.771240411665,3014.327266674157) translate(36.4765625 62.938281249999996)"/><path d="M5117.57 2745.4c0-8.77 7.1-15.85 15.9-15.85 8.7 0 15.9 7.08 15.9 15.84 0 8.75-7.2 15.95-15.9 15.95-8.8 0-15.9-7.2-15.9-15.96zm-37.3 50.15c0-3.24 2.6-5.88 5.9-5.88 3.2 0 5.8 2.64 5.8 5.88 0 3.24-2.6 5.88-5.8 5.88-3.3 0-5.9-2.64-5.9-5.88zm5.9-103.32c3.2 0 5.8 2.64 5.8 5.88 0 3.25-2.6 5.9-5.8 5.9-3.3 0-5.9-2.65-5.9-5.9 0-3.23 2.6-5.87 5.9-5.87zm-26 83.28c0-3.23 2.7-5.87 5.9-5.87 3.3 0 5.9 2.64 5.9 5.88 0 3.25-2.6 5.9-5.9 5.9-3.2 0-5.9-2.65-5.9-5.9zm5.8-28.67c0-3.24 2.6-5.88 5.9-5.88 3.2 0 5.8 2.64 5.8 5.88 0 3.24-2.6 5.88-5.8 5.88-3.3 0-5.9-2.63-5.9-5.87zm-5.8-28.68c0-3.24 2.7-5.88 5.9-5.88 3.3 0 5.9 2.64 5.9 5.88 0 3.24-2.6 5.88-5.9 5.88-3.2 0-5.9-2.64-5.9-5.88zm60.2 10.44l-24.6-24.6c1.1-1.8 1.7-3.73 1.7-5.9 0-6.23-5.1-11.27-11.3-11.27-6.3 0-11.3 5.04-11.3 11.28 0 6.25 5 11.4 11.3 11.4 2.1 0 4.1-.7 5.8-1.67l24.6 24.6c-.7.84-1.4 1.8-1.9 2.76l-37.4-15.97c.1-.36.1-.72.1-1.08 0-6.24-5-11.28-11.3-11.28-6.2 0-11.3 5.04-11.3 11.28 0 6.24 5.1 11.4 11.3 11.4 4 0 7.4-2.04 9.5-5.16l37.1 15.95c-.3 1.2-.4 2.4-.5 3.72h-29.4c-1.2-4.92-5.7-8.52-10.9-8.52-6.3 0-11.4 5.04-11.4 11.28 0 6.24 5.1 11.28 11.4 11.28 5.2 0 9.7-3.6 10.9-8.5h29.7c.3 1.2.6 2.27 1 3.47l-37.9 16.2c-2.1-3.12-5.5-5.16-9.5-5.16-6.2 0-11.3 5.17-11.3 11.4 0 6.25 5.1 11.3 11.3 11.3 6.3 0 11.3-5.05 11.3-11.3 0-.35 0-.7-.1-1.07l38.6-16.56-.5-1.2c.7 1.2 1.5 2.28 2.5 3.24l-25.9 25.93c-1.7-.96-3.7-1.68-5.8-1.68-6.3 0-11.3 5.16-11.3 11.4s5 11.28 11.3 11.28c6.2 0 11.3-5.04 11.3-11.28 0-2.16-.6-4.08-1.7-5.88l26.3-26.28c3.3 2.15 7.2 3.35 11.4 3.35 11.7 0 21.3-9.6 21.3-21.36 0-11.77-9.6-21.37-21.3-21.37-5 0-9.5 1.68-13.1 4.56z" stroke="#000" stroke-opacity="0" fill="#7aa116"/><use xlink:href="#g" transform="matrix(1,0,0,1,5024.771240411665,2815.827266674157) translate(15.23486328125 25.1875)"/><use xlink:href="#h" transform="matrix(1,0,0,1,5024.771240411665,2815.827266674157) translate(74.15380859375 25.1875)"/><path d="M4728.37 2990.5h13.68v-5.5h-13.68v5.5zm-10.96 0h5.53v-5.5h-5.52v5.5zm10.97-27.35h13.68v-5.4h-13.68v5.4zm-10.96 0h5.53v-5.4h-5.52v5.4zm10.97-30h13.68v-5.4h-13.68v5.4zm-10.96 0h5.53v-5.4h-5.52v5.4zm-7.2.6v-20.88c6.57 4.68 18.4 7.56 33.53 7.56 14 0 28.08-2.76 35.6-8.04v21.35c0 5.4-14.64 11.4-35.6 11.4-20.64 0-33.52-5.88-33.52-11.4zm0 28.2V2943c6.57 4.67 18.4 7.55 33.53 7.55 13.68 0 28-2.52 35.6-7.8v19.2c0 5.4-14.64 11.28-35.6 11.28s-33.52-5.76-33.52-11.28zm0 28.08v-18.96c6.57 4.8 18.4 7.68 33.53 7.68 13.68 0 28-2.52 35.6-7.8v19.08c0 5.4-14.64 11.4-35.6 11.4s-33.52-5.76-33.52-11.4zm69.13-86.4c0 5.4-14.64 11.28-35.6 11.28-20.64 0-33.52-5.87-33.52-11.27 0-5.4 12.9-11.4 33.53-11.4 20.96 0 35.6 6 35.6 11.4zm-74.56 0v86.4c0 10.08 15.68 16.8 38.96 16.8 19.76 0 41.04-5.28 41.04-16.8v-86.4c0-11.04-20.64-16.8-41.04-16.8-23.28 0-38.96 6.72-38.96 16.8z" stroke="#000" stroke-opacity="0" fill="#7aa116"/><use xlink:href="#i" transform="matrix(1,0,0,1,4674.771240411665,3015.827266674157) translate(44.19677734375 25.1875)"/><use xlink:href="#j" transform="matrix(1,0,0,1,4674.771240411665,3015.827266674157) translate(28.12451171875 62.938281249999996)"/><use xlink:href="#k" transform="matrix(1,0,0,1,4674.771240411665,3015.827266674157) translate(23.7509765625 100.68906249999999)"/><path d="M6201.66 3162.02v6.95H6020.5v-6.95zm-343.4-20.66l.25 3.34.76 3.13 1.23 2.98 1.68 2.75 2.1 2.45 2.43 2.1 2.76 1.67 2.97 1.23 3.06.74v6.98l-1.03-.08-4.2-1-3.98-1.66-3.68-2.25-3.28-2.8-2.8-3.28-2.26-3.68-1.65-3.98-1-4.2-.33-4.17v-56.55h6.95z" stroke="#3a414a" stroke-width=".05" fill="#3a414a"/><path d="M6204.77 3163.76l.7 3.1 1.63 2.1h-5.53v-6.94h3.2z" fill="#3a414a"/><path stroke="#3a414a" stroke-width=".05" fill="#3a414a"/><path d="M5856.53 3018.33H5853l1.77-5.43z" fill="#3a414a"/><path d="M5860.2 3018.33h-10.85l5.42-16.68z" stroke="#3a414a" stroke-width=".05" fill="#3a414a"/><use xlink:href="#l" transform="matrix(1,0,0,1,5875.494486620588,3152.049922924157) translate(0 21.52777777777778)"/><use xlink:href="#m" transform="matrix(1,0,0,1,5875.494486620588,3152.049922924157) translate(65.80946180555556 21.52777777777778)"/><path d="M5875.07 2723.68l4.2 1 3.98 1.66 3.68 2.25 3.28 2.8 2.8 3.27 2.26 3.68 1.65 3.98 1.02 4.2.33 4.16v197.8h-6.95v-197.54l-.27-3.34-.75-3.13-1.23-3-1.68-2.73-2.1-2.45-2.44-2.1-2.74-1.67-3-1.23-3.12-.75-3.34-.27h-163.07v-6.95h163.34zm-702.3 6.62v-6.95h383.3v6.95z" stroke="#3a414a" stroke-width=".05" fill="#3a414a"/><path d="M5898.25 2955h-4.53l1.7-2.67-4.12-2.03v-1.88h6.95z" fill="#3a414a"/><path stroke="#3a414a" stroke-width=".05" fill="#3a414a"/><path d="M5169.28 2731.46l-14.27-4.63 14.28-4.64z" fill="#3a414a"/><path d="M5172.75 2736.24l-28.98-9.4 28.98-9.43z" stroke="#3a414a" stroke-width=".05" fill="#3a414a"/><use xlink:href="#n" transform="matrix(1,0,0,1,5556.065355473958,2713.3832562574903) translate(0 21.52777777777778)"/><use xlink:href="#o" transform="matrix(1,0,0,1,5556.065355473958,2713.3832562574903) translate(52.49565972222222 21.52777777777778)"/><path d="M4793.22 2750.3h-24.3l-3.36.27-3.13.75-2.97 1.23-2.75 1.68-2.43 2.1-2.1 2.44-1.68 2.74-1.24 3-.75 3.12-.25 3.34v86.83h-6.95v-87.1l.32-4.17 1-4.2 1.66-3.98 2.26-3.68 2.8-3.28 3.28-2.8 3.67-2.26 3.98-1.65 4.2-1.02 4.16-.33h24.58zm263.75 0h-110.2v-6.95h110.2z" stroke="#3a414a" stroke-width=".05" fill="#3a414a"/><path d="M5060.85 2743.92l-.38 2.9.38 2.9.24.58h-4.22v-6.95h4.2z" fill="#3a414a"/><path stroke="#3a414a" stroke-width=".05" fill="#3a414a"/><path d="M4744.77 2875.56l-4.63-14.27h9.27z" fill="#fff"/><path d="M4744.77 2886.8l-9.42-28.98h18.84z" stroke="#3a414a" stroke-width=".05" fill="#3a414a"/><use xlink:href="#p" transform="matrix(1,0,0,1,4793.220486111111,2733.3832562574903) translate(0 21.52777777777778)"/><use xlink:href="#q" transform="matrix(1,0,0,1,4793.220486111111,2733.3832562574903) translate(85.78559027777779 21.52777777777778)"/><path d="M5898.25 3102.02l.26 3.35.76 3.13 1.23 2.97 1.68 2.75 2.1 2.45 2.43 2.1 2.76 1.67 2.97 1.23 3.13.75 3.35.27h133.37v6.94h-133.64l-4.16-.33-4.2-1-3.98-1.65-3.68-2.25-3.28-2.8-2.8-3.28-2.26-3.68-1.65-4-1-4.18-.33-4.16v-17.22h6.95zm0-83.7h-6.95v-9.5h6.95z" stroke="#3a414a" stroke-width=".05" fill="#3a414a"/><path d="M5898.25 3008.92h-6.95v-3.6h6.95z" fill="#3a414a"/><path stroke="#3a414a" stroke-width=".05" fill="#3a414a"/><path fill="#3a414a"/><path d="M6181.3 3139.68v-.07h.14zm23.42-13.52l-.94.54v-1.08zm-23.28-13.44h-.13v-.08z" stroke="#3a414a" stroke-width=".05" fill="#3a414a"/><g><use xlink:href="#r" transform="matrix(1,0,0,1,6052.272339527765,3112.716589590824) translate(0 21.52777777777778)"/><use xlink:href="#s" transform="matrix(1,0,0,1,6052.272339527765,3112.716589590824) translate(52.49565972222222 21.52777777777778)"/></g><path d="M5835.07 2763.68l4.2 1 3.98 1.66 3.68 2.25 3.28 2.8 2.8 3.27 2.26 3.68 1.65 3.98 1.02 4.2.33 4.16v74.14h-6.95v-73.88l-.27-3.34-.75-3.13-1.23-3-1.68-2.73-2.1-2.45-2.44-2.1-2.74-1.67-3-1.23-3.12-.75-3.34-.27h-290.92v-6.95h291.2zm-712.94 6.62v-6.95h275.92v6.95z" stroke="#3a414a" stroke-width=".05" fill="#3a414a"/><path d="M5122.22 2763.46v6.84h-6.6v-.48l6.45-6.43z" fill="#3a414a"/><path stroke="#3a414a" stroke-width=".05" fill="#3a414a"/><path d="M5854.77 2881.33l-7.5-13h15z" fill="#3a414a"/><path d="M5854.77 2888.28l-13.52-23.42h27.04zm-1.48-16.47l1.47 2.58 1.48-2.57z" stroke="#3a414a" stroke-width=".05" fill="#3a414a"/><g><use xlink:href="#t" transform="matrix(1,0,0,1,5398.052064715646,2753.3832562574903) translate(0 21.52777777777778)"/><use xlink:href="#u" transform="matrix(1,0,0,1,5398.052064715646,2753.3832562574903) translate(87.44574652777776 21.52777777777778)"/></g><path d="M4565.44 2626.9l-6.6 9.07-6.36 9.6-6.15 10.14-5.9 10.72-5.6 11.3-5.3 11.9-4.94 12.5-4.56 13.06-4.1 13.6-3.63 14.12-3.07 14.52-2.5 14.84-1.9 15-1.28 15.06-.62 14.92v14.6l.6 14.15 1.12 13.53 1.6 12.8 2.04 11.98 2.35 11.13 2.62 10.23 2.82 9.35 2.95 8.52 3.05 7.7 3.1 6.97 3.1 6.27 3.12 5.66 3.08 5.1 3.05 4.58 3 4.14 2.95 3.72 2.9 3.36 2.84 3.04 2.8 2.73 2.74 2.47 2.7 2.24 2.67 2.03 2.62 1.82 2.6 1.65 2.57 1.48 2.54 1.34 2.54 1.2 2.52 1.05 2.53.94 2.53.83 2.53.7 2.56.6 2.57.5 2.6.4 2.67.27 2.18.13-.44 6.94-2.32-.15-2.95-.3-2.9-.43-2.86-.56-2.84-.67-2.8-.78-2.82-.93-2.8-1.04-2.8-1.17-2.8-1.32-2.8-1.47-2.82-1.63-2.84-1.8-2.86-2-2.9-2.2-2.92-2.4-2.96-2.68-3-2.94-3.05-3.25-3.1-3.58-3.12-3.96-3.16-4.37-3.2-4.83-3.24-5.34-3.25-5.9-3.25-6.55-3.2-7.23-3.17-7.98-3.05-8.78-2.9-9.63-2.7-10.52-2.42-11.4-2.07-12.26-1.66-13.1-1.16-13.8-.6-14.45v-14.9l.64-15.22 1.28-15.34 1.94-15.3 2.56-15.12 3.14-14.8 3.7-14.4 4.2-13.9 4.64-13.33 5.05-12.77 5.4-12.17 5.75-11.56 6.03-10.97 6.3-10.4 6.54-9.83 6.76-9.3 3.32-4.2h8.87zm297.12-128.76l14.86 1.12 14.2 1.67 13.5 2.17 12.82 2.62 12.13 3 11.45 3.36 10.82 3.66 10.2 3.94 9.6 4.2 9.08 4.4 8.55 4.6 8.08 4.8 7.63 4.98 7.2 5.14 6.8 5.3 6.45 5.48 6.1 5.64 5.77 5.8 5.47 5.96 5.17 6.15 4.9 6.34 4.62 6.54 4.36 6.77 4.12 7 3.86 7.23 3.6 7.53 3.38 7.82 3.1 8.16 2.86 8.54 2.57 8.94 1.45 5.95-6.75 1.64-1.4-5.8-2.5-8.66-2.76-8.25-3-7.9-3.25-7.54-3.5-7.26-3.73-6.98-3.96-6.74-4.2-6.52-4.46-6.3-4.7-6.1-5-5.93-5.27-5.76-5.56-5.58-5.88-5.43-6.22-5.3-6.58-5.12-6.97-4.98-7.38-4.82-7.82-4.64-8.3-4.48-8.8-4.28-9.36-4.07-9.93-3.82-10.54-3.58-11.17-3.27-11.85-2.93-12.5-2.56-13.23-2.12-13.92-1.64-14.57-1.1-15.2-.5-15.76.12-16.22.8-16.57 1.54-16.78 2.26-16.83 3-16.72 3.68-16.44 4.37-16.02 4.98-15.46 5.52-14.8 6-14.04 6.4-13.23 6.7-12.38 6.93-11.56 7.13-10.7 7.25-9.92 7.32-9.13 7.36-6.48 5.7h-10.25l1.3-1.28 2.37-2.2 8.6-7.54 9.35-7.53 10.14-7.5 10.95-7.4 11.8-7.28 12.64-7.1 13.5-6.83 14.3-6.5 15.06-6.1 15.74-5.63 16.3-5.07 16.72-4.44 17-3.76 17.12-3.04 17.07-2.3 16.86-1.55 16.52-.83 16.04-.13z" stroke="#3a414a" stroke-width=".05" fill="#3a414a"/><path d="M4599 2996.52v6.96l-3.66-.08.14-6.95z" fill="#3a414a"/><path stroke="#3a414a" stroke-width=".05" fill="#3a414a"/><path d="M5086.9 2679.95l-9.75-11.4 14.74-2.75z" fill="#3a414a"/><path d="M5088.2 2686.78l-17.6-20.53 26.57-4.97zm-4.5-15.9l1.93 2.23.98-2.78z" stroke="#3a414a" stroke-width=".05" fill="#3a414a"/><g><use xlink:href="#v" transform="matrix(1,0,0,1,4502.146081048107,2591.6199927352145) translate(0 21.52777777777778)"/><use xlink:href="#w" transform="matrix(1,0,0,1,4502.146081048107,2591.6199927352145) translate(86.5451388888889 21.52777777777778)"/></g><path d="M4600 2846a6 6 0 0 1 6-6h277.54a6 6 0 0 1 6 6v308a6 6 0 0 1-6 6H4606a6 6 0 0 1-6-6z" stroke="#000" stroke-width="2" fill-opacity="0"/><defs><path fill="#fff" d="M657 26c-323 0-524-166-541-416h195c15 169 171 246 346 246 202 0 356-106 356-265 5-203-294-238-475-293-239-73-380-191-380-389 0-252 224-419 512-419 294 0 499 171 508 396H992c-17-145-151-228-328-228-193 0-321 102-321 242 0 156 175 211 284 241l149 41c160 44 422 134 422 412 0 244-197 432-541 432" id="x"/><path fill="#fff" d="M140 405l46-156c120 36 205 19 263-150l32-93L54-1118h197c107 313 237 620 324 950 87-331 219-637 326-950h196L606 167c-68 178-176 259-334 259-64 0-113-12-132-21" id="y"/><path fill="#fff" d="M538 24C308 24 148-78 108-271l171-41c32 123 123 178 257 178 156 0 256-77 256-169 0-77-54-128-164-154l-186-44c-203-48-300-148-300-305 0-192 176-326 414-326 230 0 351 112 402 269l-163 42c-31-80-94-158-238-158-133 0-233 69-233 162 0 83 57 129 188 160l169 40c203 48 298 149 298 302 0 196-179 339-441 339" id="z"/><path fill="#fff" d="M598-1118v154H368v674c0 100 37 144 132 144 23 0 62-6 92-12L629-6c-37 13-88 20-134 20-193 0-307-107-307-290v-688H20v-154h168v-266h180v266h230" id="A"/><path fill="#fff" d="M628 24c-324 0-524-230-524-574 0-343 198-582 503-582 237 0 487 146 487 559v75H286c9 234 145 362 343 362 132 0 231-58 273-172l174 48C1024-91 857 24 628 24zM287-650h624c-17-190-120-322-304-322-192 0-309 151-320 322" id="B"/><path fill="#fff" d="M158 0v-1118h175l1 205c55-151 181-225 313-225 147 0 245 90 285 228 53-141 190-228 352-228 194 0 352 125 352 384V0h-181v-749c0-161-105-225-225-225-151 0-243 103-243 244V0H807v-767c0-124-93-207-219-207-131 0-250 92-250 270V0H158" id="C"/><g id="a"><use transform="matrix(0.01953125,0,0,0.01953125,0,0)" xlink:href="#x"/><use transform="matrix(0.01953125,0,0,0.01953125,25.6640625,0)" xlink:href="#y"/><use transform="matrix(0.01953125,0,0,0.01953125,48.14453125,0)" xlink:href="#z"/><use transform="matrix(0.01953125,0,0,0.01953125,69.2578125,0)" xlink:href="#A"/><use transform="matrix(0.01953125,0,0,0.01953125,81.953125,0)" xlink:href="#B"/><use transform="matrix(0.01953125,0,0,0.01953125,105.2734375,0)" xlink:href="#C"/></g><path fill="#fff" d="M52 0l541-1490h220L1361 0h-200l-149-416H398L254 0H52zm404-582h497c-103-290-145-390-251-756-108 377-145 460-246 756" id="D"/><path fill="#fff" d="M158 0v-1118h174v172h12c41-113 157-188 290-188 26 0 70 2 91 3v181c-11-2-60-10-108-10-161 0-279 109-279 260V0H158" id="E"/><path fill="#fff" d="M613 24c-304 0-509-231-509-576 0-350 205-580 509-580 216 0 392 114 453 309l-173 49c-33-115-133-197-280-197-223 0-326 196-326 419 0 220 103 415 326 415 150 0 252-85 285-206l172 49C1010-95 832 24 613 24" id="F"/><path fill="#fff" d="M338-670V0H158v-1490h180v566c73-149 190-208 336-208 226 0 379 139 379 422V0H872v-695c0-172-96-275-252-275-161 0-282 109-282 300" id="G"/><path fill="#fff" d="M158 0v-1118h180V0H158zm91-1301c-68 0-125-53-125-119s57-119 125-119c69 0 126 53 126 119s-57 119-126 119" id="H"/><path fill="#fff" d="M537 14c-226 0-379-139-379-422v-710h180v695c0 172 97 275 253 275 160 0 281-109 281-300v-670h181V0H879v-209C806-46 684 14 537 14" id="I"/><g id="b"><use transform="matrix(0.01953125,0,0,0.01953125,0,0)" xlink:href="#D"/><use transform="matrix(0.01953125,0,0,0.01953125,27.59765625,0)" xlink:href="#E"/><use transform="matrix(0.01953125,0,0,0.01953125,41.9921875,0)" xlink:href="#F"/><use transform="matrix(0.01953125,0,0,0.01953125,64.84375,0)" xlink:href="#G"/><use transform="matrix(0.01953125,0,0,0.01953125,88.49609375,0)" xlink:href="#H"/><use transform="matrix(0.01953125,0,0,0.01953125,98.18359375,0)" xlink:href="#A"/><use transform="matrix(0.01953125,0,0,0.01953125,110.87890625,0)" xlink:href="#B"/><use transform="matrix(0.01953125,0,0,0.01953125,134.19921875,0)" xlink:href="#F"/><use transform="matrix(0.01953125,0,0,0.01953125,157.05078125,0)" xlink:href="#A"/><use transform="matrix(0.01953125,0,0,0.01953125,170.13671875,0)" xlink:href="#I"/><use transform="matrix(0.01953125,0,0,0.01953125,193.7890625,0)" xlink:href="#E"/><use transform="matrix(0.01953125,0,0,0.01953125,208.18359375,0)" xlink:href="#B"/></g><path fill="#fff" d="M645 0H180v-1490h484c435 0 692 280 692 742 0 466-257 748-711 748zM370-168h263c363 0 539-218 539-580 0-358-176-574-521-574H370v1154" id="J"/><path fill="#fff" d="M471 26C259 26 90-98 90-318c0-256 228-303 435-329 202-27 287-16 287-108 0-139-79-219-234-219-161 0-248 86-283 164l-173-57c86-203 278-265 451-265 150 0 419 46 419 395V0H815v-152h-12C765-73 660 26 471 26zm31-159c199 0 310-134 310-271v-155c-30 35-226 55-295 64-131 17-246 59-246 186 0 116 97 176 231 176" id="K"/><path fill="#fff" d="M611 442c-248 0-391-105-460-228l146-94c47 65 117 165 314 165 178 0 307-82 307-266v-224h-17C863-141 792-18 576-18c-268 0-472-195-472-546 0-346 197-568 476-568 216 0 288 133 326 193h17v-179h175V29c0 289-215 413-487 413zm-5-620c203 0 314-146 314-390 0-237-108-403-314-403-213 0-319 180-319 403 0 230 109 390 319 390" id="L"/><g id="c"><use transform="matrix(0.01953125,0,0,0.01953125,0,0)" xlink:href="#J"/><use transform="matrix(0.01953125,0,0,0.01953125,28.8671875,0)" xlink:href="#H"/><use transform="matrix(0.01953125,0,0,0.01953125,38.5546875,0)" xlink:href="#K"/><use transform="matrix(0.01953125,0,0,0.01953125,61.015625,0)" xlink:href="#L"/><use transform="matrix(0.01953125,0,0,0.01953125,85.546875,0)" xlink:href="#E"/><use transform="matrix(0.01953125,0,0,0.01953125,100.60546875,0)" xlink:href="#K"/><use transform="matrix(0.01953125,0,0,0.01953125,123.06640625,0)" xlink:href="#C"/></g><path d="M180 0v-1490h528c311 0 458 177 458 395 0 191-114 278-244 313v14c139 9 302 137 302 371 0 225-148 397-499 397H180zm190-168h350c232 0 321-102 321-231 0-149-120-277-311-277H370v508zm0-668h328c160 0 286-101 286-255 0-129-87-231-280-231H370v486" id="M"/><path d="M158 0v-1118h174v172h12c41-113 157-188 290-188 26 0 70 2 91 3v181c-11-2-60-10-108-10-161 0-279 109-279 260V0H158" id="N"/><path d="M613 24c-304 0-509-231-509-576 0-350 205-580 509-580 305 0 511 230 511 580 0 345-206 576-511 576zm0-161c226 0 329-195 329-415 0-222-103-419-329-419-223 0-326 196-326 419 0 220 103 415 326 415" id="O"/><path d="M409 0L70-1118h191c89 329 165 560 243 925 75-353 154-601 240-925h192c85 325 161 564 235 922 77-354 157-598 244-922h191L1267 0h-179c-86-307-176-590-250-913C763-588 675-308 588 0H409" id="P"/><path d="M538 24C308 24 148-78 108-271l171-41c32 123 123 178 257 178 156 0 256-77 256-169 0-77-54-128-164-154l-186-44c-203-48-300-148-300-305 0-192 176-326 414-326 230 0 351 112 402 269l-163 42c-31-80-94-158-238-158-133 0-233 69-233 162 0 83 57 129 188 160l169 40c203 48 298 149 298 302 0 196-179 339-441 339" id="Q"/><path d="M628 24c-324 0-524-230-524-574 0-343 198-582 503-582 237 0 487 146 487 559v75H286c9 234 145 362 343 362 132 0 231-58 273-172l174 48C1024-91 857 24 628 24zM287-650h624c-17-190-120-322-304-322-192 0-309 151-320 322" id="R"/><path d="M692-1560L212 224H46l480-1784h166" id="S"/><path d="M783 20c-382 0-661-292-661-764 0-473 279-766 661-766 302 0 548 182 601 489h-190c-42-204-217-313-411-313-268 0-476 208-476 590 0 381 209 588 476 588 195 0 369-110 411-313h190c-52 303-296 489-601 489" id="T"/><path d="M338-1490V0H158v-1490h180" id="U"/><path d="M158 0v-1118h180V0H158zm91-1301c-68 0-125-53-125-119s57-119 125-119c69 0 126 53 126 119s-57 119-126 119" id="V"/><path d="M338-670V0H158v-1118h173l1 207c72-158 192-221 342-221 226 0 378 139 378 422V0H872v-695c0-172-96-275-252-275-161 0-282 109-282 300" id="W"/><path d="M598-1118v154H368v674c0 100 37 144 132 144 23 0 62-6 92-12L629-6c-37 13-88 20-134 20-193 0-307-107-307-290v-688H20v-154h168v-266h180v266h230" id="X"/><g id="d"><use transform="matrix(0.0126953125,0,0,0.0126953125,0,0)" xlink:href="#M"/><use transform="matrix(0.0126953125,0,0,0.0126953125,17.01171875,0)" xlink:href="#N"/><use transform="matrix(0.0126953125,0,0,0.0126953125,26.3681640625,0)" xlink:href="#O"/><use transform="matrix(0.0126953125,0,0,0.0126953125,41.48828125,0)" xlink:href="#P"/><use transform="matrix(0.0126953125,0,0,0.0126953125,62.765625,0)" xlink:href="#Q"/><use transform="matrix(0.0126953125,0,0,0.0126953125,76.4892578125,0)" xlink:href="#R"/><use transform="matrix(0.0126953125,0,0,0.0126953125,91.6474609375,0)" xlink:href="#N"/><use transform="matrix(0.0126953125,0,0,0.0126953125,100.5595703125,0)" xlink:href="#S"/><use transform="matrix(0.0126953125,0,0,0.0126953125,109.9287109375,0)" xlink:href="#T"/><use transform="matrix(0.0126953125,0,0,0.0126953125,128.9208984375,0)" xlink:href="#U"/><use transform="matrix(0.0126953125,0,0,0.0126953125,135.2177734375,0)" xlink:href="#V"/><use transform="matrix(0.0126953125,0,0,0.0126953125,141.5146484375,0)" xlink:href="#R"/><use transform="matrix(0.0126953125,0,0,0.0126953125,156.6728515625,0)" xlink:href="#W"/><use transform="matrix(0.0126953125,0,0,0.0126953125,172.0341796875,0)" xlink:href="#X"/></g><path d="M458 0L52-1490h194c108 439 233 855 324 1313 92-459 221-873 331-1313h216c110 438 234 854 330 1307 92-455 216-869 323-1307h196L1558 0h-221l-256-944c-26-95-50-200-73-331-22 122-44 223-73 331L680 0H458" id="Y"/><path d="M677 24c-213 0-288-135-325-197h-20V0H158v-1490h180v551h14c37-59 106-193 324-193 279 0 474 222 474 576 0 356-194 580-473 580zm-27-161c209 0 317-186 317-421 0-232-105-413-317-413-206 0-314 166-314 413 0 249 111 421 314 421" id="Z"/><path d="M657 26c-323 0-524-166-541-416h195c15 169 171 246 346 246 202 0 356-106 356-265 5-203-294-238-475-293-239-73-380-191-380-389 0-252 224-419 512-419 294 0 499 171 508 396H992c-17-145-151-228-328-228-193 0-321 102-321 242 0 156 175 211 284 241l149 41c160 44 422 134 422 412 0 244-197 432-541 432" id="aa"/><path d="M613 24c-304 0-509-231-509-576 0-350 205-580 509-580 216 0 392 114 453 309l-173 49c-33-115-133-197-280-197-223 0-326 196-326 419 0 220 103 415 326 415 150 0 252-85 285-206l172 49C1010-95 832 24 613 24" id="ab"/><path d="M158 0v-1490h180v865h22l478-493h223L593-638 1096 0H865L456-523 338-412V0H158" id="ac"/><g id="e"><use transform="matrix(0.0126953125,0,0,0.0126953125,0,0)" xlink:href="#Y"/><use transform="matrix(0.0126953125,0,0,0.0126953125,24.298828125,0)" xlink:href="#R"/><use transform="matrix(0.0126953125,0,0,0.0126953125,39.45703125,0)" xlink:href="#Z"/><use transform="matrix(0.0126953125,0,0,0.0126953125,55.376953125,0)" xlink:href="#aa"/><use transform="matrix(0.0126953125,0,0,0.0126953125,72.05859375,0)" xlink:href="#O"/><use transform="matrix(0.0126953125,0,0,0.0126953125,87.6484375,0)" xlink:href="#ab"/><use transform="matrix(0.0126953125,0,0,0.0126953125,102.501953125,0)" xlink:href="#ac"/><use transform="matrix(0.0126953125,0,0,0.0126953125,116.1875,0)" xlink:href="#R"/><use transform="matrix(0.0126953125,0,0,0.0126953125,131.345703125,0)" xlink:href="#X"/></g><path d="M789 20c-398 0-667-293-667-764 0-473 273-766 655-766 315 0 558 198 612 487h-196c-61-191-204-311-415-311-262 0-471 207-471 590 0 380 208 588 482 588 249 0 420-165 425-427H828v-166h572v163c0 370-256 606-611 606" id="ad"/><path d="M471 26C259 26 90-98 90-318c0-256 228-303 435-329 202-27 287-16 287-108 0-139-79-219-234-219-161 0-248 86-283 164l-173-57c86-203 278-265 451-265 150 0 419 46 419 395V0H815v-152h-12C765-73 660 26 471 26zm31-159c199 0 310-134 310-271v-155c-30 35-226 55-295 64-131 17-246 59-246 186 0 116 97 176 231 176" id="ae"/><path d="M140 405l46-156c120 36 205 19 263-150l32-93L54-1118h197c107 313 237 620 324 950 87-331 219-637 326-950h196L606 167c-68 178-176 259-334 259-64 0-113-12-132-21" id="af"/><g id="f"><use transform="matrix(0.0126953125,0,0,0.0126953125,0,0)" xlink:href="#ad"/><use transform="matrix(0.0126953125,0,0,0.0126953125,19.3984375,0)" xlink:href="#ae"/><use transform="matrix(0.0126953125,0,0,0.0126953125,33.998046875,0)" xlink:href="#X"/><use transform="matrix(0.0126953125,0,0,0.0126953125,42.25,0)" xlink:href="#R"/><use transform="matrix(0.0126953125,0,0,0.0126953125,56.9384765625,0)" xlink:href="#P"/><use transform="matrix(0.0126953125,0,0,0.0126953125,78.2158203125,0)" xlink:href="#ae"/><use transform="matrix(0.0126953125,0,0,0.0126953125,92.4345703125,0)" xlink:href="#af"/></g><path d="M98-1322v-168h1126v168H757V0H567v-1322H98" id="ag"/><path d="M180 0v-1490h510c348 0 508 209 508 474 0 266-160 477-507 477H370V0H180zm190-706h312c236 0 327-133 327-310 0-176-91-307-329-307H370v617" id="ah"/><g id="g"><use transform="matrix(0.0126953125,0,0,0.0126953125,0,0)" xlink:href="#ag"/><use transform="matrix(0.0126953125,0,0,0.0126953125,16.0087890625,0)" xlink:href="#T"/><use transform="matrix(0.0126953125,0,0,0.0126953125,35.0009765625,0)" xlink:href="#ah"/></g><g id="h"><use transform="matrix(0.0126953125,0,0,0.0126953125,0,0)" xlink:href="#T"/><use transform="matrix(0.0126953125,0,0,0.0126953125,18.9921875,0)" xlink:href="#U"/><use transform="matrix(0.0126953125,0,0,0.0126953125,25.2890625,0)" xlink:href="#V"/><use transform="matrix(0.0126953125,0,0,0.0126953125,31.5859375,0)" xlink:href="#R"/><use transform="matrix(0.0126953125,0,0,0.0126953125,46.744140625,0)" xlink:href="#W"/><use transform="matrix(0.0126953125,0,0,0.0126953125,62.10546875,0)" xlink:href="#X"/></g><g id="i"><use transform="matrix(0.0126953125,0,0,0.0126953125,0,0)" xlink:href="#ag"/><use transform="matrix(0.0126953125,0,0,0.0126953125,16.0087890625,0)" xlink:href="#T"/><use transform="matrix(0.0126953125,0,0,0.0126953125,35.0009765625,0)" xlink:href="#ah"/></g><path d="M180 0v-1490h908v168H370v486h669v168H370v500h727V0H180" id="ai"/><path d="M611 442c-248 0-391-105-460-228l146-94c47 65 117 165 314 165 178 0 307-82 307-266v-224h-17C863-141 792-18 576-18c-268 0-472-195-472-546 0-346 197-568 476-568 216 0 288 133 326 193h17v-179h175V29c0 289-215 413-487 413zm-5-620c203 0 314-146 314-390 0-237-108-403-314-403-213 0-319 180-319 403 0 230 109 390 319 390" id="aj"/><g id="j"><use transform="matrix(0.0126953125,0,0,0.0126953125,0,0)" xlink:href="#ai"/><use transform="matrix(0.0126953125,0,0,0.0126953125,15.6279296875,0)" xlink:href="#W"/><use transform="matrix(0.0126953125,0,0,0.0126953125,30.9892578125,0)" xlink:href="#aj"/><use transform="matrix(0.0126953125,0,0,0.0126953125,46.9345703125,0)" xlink:href="#V"/><use transform="matrix(0.0126953125,0,0,0.0126953125,53.2314453125,0)" xlink:href="#W"/><use transform="matrix(0.0126953125,0,0,0.0126953125,68.5927734375,0)" xlink:href="#R"/></g><path d="M338-670V0H158v-1490h180v566c73-149 190-208 336-208 226 0 379 139 379 422V0H872v-695c0-172-96-275-252-275-161 0-282 109-282 300" id="ak"/><path d="M577 24c-279 0-473-224-473-580 0-354 195-576 474-576 218 0 287 134 324 193h14v-551h180V0H922v-173h-20C865-111 790 24 577 24zm27-161c203 0 314-172 314-421 0-247-108-413-314-413-212 0-317 181-317 413 0 235 108 421 317 421" id="al"/><g id="k"><use transform="matrix(0.0126953125,0,0,0.0126953125,0,0)" xlink:href="#ak"/><use transform="matrix(0.0126953125,0,0,0.0126953125,15.3740234375,0)" xlink:href="#ae"/><use transform="matrix(0.0126953125,0,0,0.0126953125,29.9736328125,0)" xlink:href="#W"/><use transform="matrix(0.0126953125,0,0,0.0126953125,45.3349609375,0)" xlink:href="#al"/><use transform="matrix(0.0126953125,0,0,0.0126953125,61.2548828125,0)" xlink:href="#U"/><use transform="matrix(0.0126953125,0,0,0.0126953125,67.5517578125,0)" xlink:href="#R"/><use transform="matrix(0.0126953125,0,0,0.0126953125,82.7099609375,0)" xlink:href="#N"/></g><path d="M567 20C257 20 68-148 68-448v-87h305v92c0 143 75 217 194 217s193-74 193-218v-1046h302v1041c0 301-188 469-495 469" id="am"/><path d="M681 22C323 22 94-145 85-462h297c10 151 131 226 296 226 163 0 271-77 271-190 0-102-95-149-257-189l-164-41c-252-61-403-188-403-405 0-269 236-449 560-449 330 0 546 183 551 445H941c-11-119-106-188-259-188-156 0-244 72-244 172-3 156 226 185 373 221 250 61 445 186 445 436 0 271-213 446-575 446" id="an"/><path d="M789 20C394 20 94-260 94-744c0-487 300-766 695-766s695 279 695 766c0 485-300 764-695 764zm0-271c231 0 385-174 385-493 0-321-154-495-385-495s-385 175-385 495c0 319 154 493 385 493" id="ao"/><path d="M135 0v-1490h340l471 754c59 97 122 210 187 365-32-387-14-721-19-1119h312V0h-341C855-382 627-689 427-1113c32 420 16 695 20 1113H135" id="ap"/><g id="l"><use transform="matrix(0.010850694444444444,0,0,0.010850694444444444,0,0)" xlink:href="#am"/><use transform="matrix(0.010850694444444444,0,0,0.010850694444444444,12.98828125,0)" xlink:href="#an"/><use transform="matrix(0.010850694444444444,0,0,0.010850694444444444,27.5390625,0)" xlink:href="#ao"/><use transform="matrix(0.010850694444444444,0,0,0.010850694444444444,44.66145833333333,0)" xlink:href="#ap"/></g><path d="M135 0v-1490h468l242 684c30 94 76 293 111 455 34-161 80-360 110-455l238-684h470V0h-307c0-447-3-765 11-1227-122 503-246 788-395 1227H826C676-435 552-717 427-1215c15 453 11 775 11 1215H135" id="aq"/><path d="M633 22C291 22 81-200 81-553c0-345 210-579 537-579 292 0 525 185 525 567v84H378c7 183 109 277 260 277 105 0 184-46 216-132l272 51C1071-99 893 22 633 22zM380-669h474c-15-146-94-237-233-237-143 0-229 99-241 237" id="ar"/><path d="M572 22C302 22 117-98 78-306l279-48c29 105 101 156 224 156 114 0 185-48 185-115 0-118-228-130-337-155-215-49-322-150-322-317 0-215 187-347 470-347 265 0 424 116 466 298l-266 47c-24-76-87-130-196-130-98 0-174 46-174 113 0 56 38 95 144 117l201 40c216 44 320 143 320 302 0 220-207 367-500 367" id="as"/><path d="M440 22C227 22 68-92 68-313c0-250 202-322 422-343 195-21 271-24 271-105 0-95-63-149-175-149-116 0-187 57-211 129l-275-46c57-194 237-305 487-305 240 0 474 108 474 379V0H777v-155h-10C713-51 605 22 440 22zm85-211c140 0 238-93 238-211v-121c-37 26-156 42-222 51-111 16-185 59-185 149 0 87 70 132 169 132" id="at"/><path d="M625 442c-280 0-454-114-503-274l258-72c28 63 97 128 243 128 153 0 246-69 246-216v-206h-23C805-108 717-16 536-16 284-16 81-191 81-561c0-378 208-571 456-571 188 0 280 113 321 202h13v-188h295V-9c0 303-226 451-541 451zm5-686c153 0 240-119 240-319 0-198-86-329-240-329-158 0-241 137-241 329 0 195 85 319 241 319" id="au"/><g id="m"><use transform="matrix(0.008680555555555556,0,0,0.008680555555555556,0,0)" xlink:href="#aq"/><use transform="matrix(0.008680555555555556,0,0,0.008680555555555556,16.5625,0)" xlink:href="#ar"/><use transform="matrix(0.008680555555555556,0,0,0.008680555555555556,27.15277777777778,0)" xlink:href="#as"/><use transform="matrix(0.008680555555555556,0,0,0.008680555555555556,37.109375,0)" xlink:href="#as"/><use transform="matrix(0.008680555555555556,0,0,0.008680555555555556,47.06597222222222,0)" xlink:href="#at"/><use transform="matrix(0.008680555555555556,0,0,0.008680555555555556,57.38715277777778,0)" xlink:href="#au"/><use transform="matrix(0.008680555555555556,0,0,0.008680555555555556,68.61979166666667,0)" xlink:href="#ar"/></g><path d="M75-1237v-253h1217v253H837V0H531v-1237H75" id="av"/><path d="M42 0l360-574-338-544h324c72 124 151 261 209 394 58-134 140-271 215-394h318L785-570 1146 0H824c-79-136-169-280-234-425C528-278 439-134 360 0H42" id="aw"/><path d="M683-1118v229H474v562c0 71 29 104 102 104 23 0 73-7 95-13l43 225C647 9 580 16 520 16 296 16 174-96 174-301v-588H20v-229h154v-266h300v266h209" id="ax"/><g id="n"><use transform="matrix(0.010850694444444444,0,0,0.010850694444444444,0,0)" xlink:href="#av"/><use transform="matrix(0.010850694444444444,0,0,0.010850694444444444,13.096788194444445,0)" xlink:href="#ar"/><use transform="matrix(0.010850694444444444,0,0,0.010850694444444444,25.889756944444443,0)" xlink:href="#aw"/><use transform="matrix(0.010850694444444444,0,0,0.010850694444444444,39.09505208333333,0)" xlink:href="#ax"/></g><g id="o"><use transform="matrix(0.010850694444444444,0,0,0.010850694444444444,0,0)" xlink:href="#aq"/><use transform="matrix(0.010850694444444444,0,0,0.010850694444444444,20.703125,0)" xlink:href="#ar"/><use transform="matrix(0.010850694444444444,0,0,0.010850694444444444,33.94097222222222,0)" xlink:href="#as"/><use transform="matrix(0.010850694444444444,0,0,0.010850694444444444,46.38671875,0)" xlink:href="#as"/><use transform="matrix(0.010850694444444444,0,0,0.010850694444444444,58.83246527777778,0)" xlink:href="#at"/><use transform="matrix(0.010850694444444444,0,0,0.010850694444444444,71.73394097222223,0)" xlink:href="#au"/><use transform="matrix(0.010850694444444444,0,0,0.010850694444444444,85.77473958333334,0)" xlink:href="#ar"/></g><path d="M135 0v-1490h997v253H440v360h640v249H440v375h694V0H135" id="ay"/><path d="M628 22C291 22 81-210 81-554c0-346 210-578 547-578 265 0 455 142 497 372l-279 52c-25-116-99-188-215-188-160 0-244 139-244 341 0 200 84 341 244 341 116 0 193-74 217-195l279 51C1085-123 896 22 628 22" id="az"/><path d="M628 22C291 22 81-210 81-554c0-346 210-578 547-578 336 0 547 232 547 578 0 344-211 576-547 576zm0-236c160 0 242-146 242-341 0-197-82-341-242-341S387-753 387-555c0 195 81 341 241 341" id="aA"/><path d="M537 19C279 19 81-185 81-557c0-382 206-575 454-575 190 0 278 113 318 202h10v-560h300V0H868v-179h-15C812-89 719 19 537 19zm92-241c153 0 240-134 240-336 0-203-86-334-240-334-158 0-240 138-240 334 0 197 84 336 240 336" id="aB"/><g id="p"><use transform="matrix(0.010850694444444444,0,0,0.010850694444444444,0,0)" xlink:href="#ay"/><use transform="matrix(0.010850694444444444,0,0,0.010850694444444444,13.49826388888889,0)" xlink:href="#az"/><use transform="matrix(0.010850694444444444,0,0,0.010850694444444444,26.573350694444443,0)" xlink:href="#az"/><use transform="matrix(0.010850694444444444,0,0,0.010850694444444444,39.6484375,0)" xlink:href="#aA"/><use transform="matrix(0.010850694444444444,0,0,0.010850694444444444,53.27690972222222,0)" xlink:href="#aB"/><use transform="matrix(0.010850694444444444,0,0,0.010850694444444444,67.28515625,0)" xlink:href="#ar"/></g><path d="M135 0v-1490h980v253H440v416h609v249H440V0H135" id="aC"/><path d="M128 0v-1118h290v195h12c54-169 184-238 367-200v268c-27-8-86-15-130-15-138 0-239 95-239 234V0H128" id="aD"/><path d="M128 0v-1118h278l12 217c60-163 185-234 319-234 143 0 236 81 288 251 63-172 205-251 359-251 205 0 357 138 357 381V0h-301v-697c0-126-76-187-177-187-114 0-184 79-184 196V0H789v-705c0-109-72-179-174-179-106 0-187 74-187 208V0H128" id="aE"/><g id="q"><use transform="matrix(0.010850694444444444,0,0,0.010850694444444444,0,0)" xlink:href="#aC"/><use transform="matrix(0.010850694444444444,0,0,0.010850694444444444,12.608506944444445,0)" xlink:href="#aD"/><use transform="matrix(0.010850694444444444,0,0,0.010850694444444444,21.354166666666664,0)" xlink:href="#at"/><use transform="matrix(0.010850694444444444,0,0,0.010850694444444444,34.25564236111111,0)" xlink:href="#aE"/><use transform="matrix(0.010850694444444444,0,0,0.010850694444444444,54.53559027777778,0)" xlink:href="#ar"/></g><path fill="#333" d="M75-1237v-253h1217v253H837V0H531v-1237H75" id="aF"/><path fill="#333" d="M633 22C291 22 81-200 81-553c0-345 210-579 537-579 292 0 525 185 525 567v84H378c7 183 109 277 260 277 105 0 184-46 216-132l272 51C1071-99 893 22 633 22zM380-669h474c-15-146-94-237-233-237-143 0-229 99-241 237" id="aG"/><path fill="#333" d="M42 0l360-574-338-544h324c72 124 151 261 209 394 58-134 140-271 215-394h318L785-570 1146 0H824c-79-136-169-280-234-425C528-278 439-134 360 0H42" id="aH"/><path fill="#333" d="M683-1118v229H474v562c0 71 29 104 102 104 23 0 73-7 95-13l43 225C647 9 580 16 520 16 296 16 174-96 174-301v-588H20v-229h154v-266h300v266h209" id="aI"/><g id="r"><use transform="matrix(0.010850694444444444,0,0,0.010850694444444444,0,0)" xlink:href="#aF"/><use transform="matrix(0.010850694444444444,0,0,0.010850694444444444,13.096788194444445,0)" xlink:href="#aG"/><use transform="matrix(0.010850694444444444,0,0,0.010850694444444444,25.889756944444443,0)" xlink:href="#aH"/><use transform="matrix(0.010850694444444444,0,0,0.010850694444444444,39.09505208333333,0)" xlink:href="#aI"/></g><path fill="#333" d="M135 0v-1490h468l242 684c30 94 76 293 111 455 34-161 80-360 110-455l238-684h470V0h-307c0-447-3-765 11-1227-122 503-246 788-395 1227H826C676-435 552-717 427-1215c15 453 11 775 11 1215H135" id="aJ"/><path fill="#333" d="M572 22C302 22 117-98 78-306l279-48c29 105 101 156 224 156 114 0 185-48 185-115 0-118-228-130-337-155-215-49-322-150-322-317 0-215 187-347 470-347 265 0 424 116 466 298l-266 47c-24-76-87-130-196-130-98 0-174 46-174 113 0 56 38 95 144 117l201 40c216 44 320 143 320 302 0 220-207 367-500 367" id="aK"/><path fill="#333" d="M440 22C227 22 68-92 68-313c0-250 202-322 422-343 195-21 271-24 271-105 0-95-63-149-175-149-116 0-187 57-211 129l-275-46c57-194 237-305 487-305 240 0 474 108 474 379V0H777v-155h-10C713-51 605 22 440 22zm85-211c140 0 238-93 238-211v-121c-37 26-156 42-222 51-111 16-185 59-185 149 0 87 70 132 169 132" id="aL"/><path fill="#333" d="M625 442c-280 0-454-114-503-274l258-72c28 63 97 128 243 128 153 0 246-69 246-216v-206h-23C805-108 717-16 536-16 284-16 81-191 81-561c0-378 208-571 456-571 188 0 280 113 321 202h13v-188h295V-9c0 303-226 451-541 451zm5-686c153 0 240-119 240-319 0-198-86-329-240-329-158 0-241 137-241 329 0 195 85 319 241 319" id="aM"/><g id="s"><use transform="matrix(0.010850694444444444,0,0,0.010850694444444444,0,0)" xlink:href="#aJ"/><use transform="matrix(0.010850694444444444,0,0,0.010850694444444444,20.703125,0)" xlink:href="#aG"/><use transform="matrix(0.010850694444444444,0,0,0.010850694444444444,33.94097222222222,0)" xlink:href="#aK"/><use transform="matrix(0.010850694444444444,0,0,0.010850694444444444,46.38671875,0)" xlink:href="#aK"/><use transform="matrix(0.010850694444444444,0,0,0.010850694444444444,58.83246527777778,0)" xlink:href="#aL"/><use transform="matrix(0.010850694444444444,0,0,0.010850694444444444,71.73394097222223,0)" xlink:href="#aM"/><use transform="matrix(0.010850694444444444,0,0,0.010850694444444444,85.77473958333334,0)" xlink:href="#aG"/></g><path d="M659 0H135v-1490h529c448 0 721 280 721 744 0 466-273 746-726 746zM440-263h204c287 0 437-148 437-483 0-333-150-481-435-481H440v964" id="aN"/><g id="t"><use transform="matrix(0.010850694444444444,0,0,0.010850694444444444,0,0)" xlink:href="#aN"/><use transform="matrix(0.010850694444444444,0,0,0.010850694444444444,16.048177083333332,0)" xlink:href="#ar"/><use transform="matrix(0.010850694444444444,0,0,0.010850694444444444,29.286024305555554,0)" xlink:href="#az"/><use transform="matrix(0.010850694444444444,0,0,0.010850694444444444,42.36111111111111,0)" xlink:href="#aA"/><use transform="matrix(0.010850694444444444,0,0,0.010850694444444444,55.98958333333333,0)" xlink:href="#aB"/><use transform="matrix(0.010850694444444444,0,0,0.010850694444444444,69.9978298611111,0)" xlink:href="#ar"/></g><g id="u"><use transform="matrix(0.008680555555555556,0,0,0.008680555555555556,0,0)" xlink:href="#aC"/><use transform="matrix(0.008680555555555556,0,0,0.008680555555555556,10.086805555555557,0)" xlink:href="#aD"/><use transform="matrix(0.008680555555555556,0,0,0.008680555555555556,17.083333333333336,0)" xlink:href="#at"/><use transform="matrix(0.008680555555555556,0,0,0.008680555555555556,27.404513888888893,0)" xlink:href="#aE"/><use transform="matrix(0.008680555555555556,0,0,0.008680555555555556,43.62847222222223,0)" xlink:href="#ar"/></g><path fill="#333" d="M135 0v-1490h997v253H440v360h640v249H440v375h694V0H135" id="aO"/><path fill="#333" d="M428-647V0H128v-1118h283l4 231c63-156 176-245 348-245 232 0 384 159 384 421V0H847v-659c0-139-76-222-202-222-128 0-217 86-217 234" id="aP"/><path fill="#333" d="M628 22C291 22 81-210 81-554c0-346 210-578 547-578 265 0 455 142 497 372l-279 52c-25-116-99-188-215-188-160 0-244 139-244 341 0 200 84 341 244 341 116 0 193-74 217-195l279 51C1085-123 896 22 628 22" id="aQ"/><path fill="#333" d="M628 22C291 22 81-210 81-554c0-346 210-578 547-578 336 0 547 232 547 578 0 344-211 576-547 576zm0-236c160 0 242-146 242-341 0-197-82-341-242-341S387-753 387-555c0 195 81 341 241 341" id="aR"/><path fill="#333" d="M537 19C279 19 81-185 81-557c0-382 206-575 454-575 190 0 278 113 318 202h10v-560h300V0H868v-179h-15C812-89 719 19 537 19zm92-241c153 0 240-134 240-336 0-203-86-334-240-334-158 0-240 138-240 334 0 197 84 336 240 336" id="aS"/><g id="v"><use transform="matrix(0.010850694444444444,0,0,0.010850694444444444,0,0)" xlink:href="#aO"/><use transform="matrix(0.010850694444444444,0,0,0.010850694444444444,13.49826388888889,0)" xlink:href="#aP"/><use transform="matrix(0.010850694444444444,0,0,0.010850694444444444,27.33289930555556,0)" xlink:href="#aQ"/><use transform="matrix(0.010850694444444444,0,0,0.010850694444444444,40.407986111111114,0)" xlink:href="#aR"/><use transform="matrix(0.010850694444444444,0,0,0.010850694444444444,54.03645833333333,0)" xlink:href="#aS"/><use transform="matrix(0.010850694444444444,0,0,0.010850694444444444,68.04470486111111,0)" xlink:href="#aG"/></g><path fill="#333" d="M135 0v-1490h980v253H440v416h609v249H440V0H135" id="aT"/><path fill="#333" d="M128 0v-1118h290v195h12c54-169 184-238 367-200v268c-27-8-86-15-130-15-138 0-239 95-239 234V0H128" id="aU"/><path fill="#333" d="M128 0v-1118h278l12 217c60-163 185-234 319-234 143 0 236 81 288 251 63-172 205-251 359-251 205 0 357 138 357 381V0h-301v-697c0-126-76-187-177-187-114 0-184 79-184 196V0H789v-705c0-109-72-179-174-179-106 0-187 74-187 208V0H128" id="aV"/><g id="w"><use transform="matrix(0.010850694444444444,0,0,0.010850694444444444,0,0)" xlink:href="#aT"/><use transform="matrix(0.010850694444444444,0,0,0.010850694444444444,12.608506944444445,0)" xlink:href="#aU"/><use transform="matrix(0.010850694444444444,0,0,0.010850694444444444,21.354166666666664,0)" xlink:href="#aL"/><use transform="matrix(0.010850694444444444,0,0,0.010850694444444444,34.25564236111111,0)" xlink:href="#aV"/><use transform="matrix(0.010850694444444444,0,0,0.010850694444444444,54.53559027777778,0)" xlink:href="#aG"/></g></defs></g></svg>